<svg width="43" height="40" viewBox="0 0 43 40" fill="none" xmlns="http://www.w3.org/2000/svg">
<path d="M22 5L22 3" stroke="white" stroke-width="2" stroke-linecap="round"/>
<path d="M19.8333 16L19.2917 13" stroke="white" stroke-width="2" stroke-linecap="round"/>
<path d="M24.1666 16L24.7082 13" stroke="white" stroke-width="2" stroke-linecap="round"/>
<path d="M11.1667 9H32.8333V9C31.2974 9 30.5295 9 29.9829 9.43465C29.9659 9.44819 29.9491 9.462 29.9326 9.47609C29.4005 9.92834 29.2521 10.6818 28.9552 12.1887L28.0523 16.773C27.7481 18.3175 27.596 19.0897 27.0424 19.5448C26.4888 20 25.7018 20 24.1277 20H19.8723C18.2982 20 17.5111 20 16.9576 19.5448C16.404 19.0897 16.2519 18.3175 15.9477 16.773L15.0447 12.1887C14.7479 10.6818 14.5995 9.92834 14.0674 9.47609C14.0509 9.462 14.0341 9.44819 14.017 9.43465C13.4705 9 12.7025 9 11.1667 9V9Z" stroke="white" stroke-width="2" stroke-linecap="round"/>
<path d="M14.5378 39.1641C16.7184 39.1641 18.1813 38.0771 18.6325 36.1289H17.3884C17.0329 37.332 15.9938 38.0293 14.5446 38.0293C12.5964 38.0293 11.3591 36.4844 11.3591 34.0645C11.3591 31.665 12.61 30.1064 14.5378 30.1064C15.946 30.1064 17.0739 30.9541 17.3884 32.2461H18.6325C18.3181 30.2773 16.6843 28.9717 14.5378 28.9717C11.8376 28.9717 10.0944 30.9678 10.0944 34.0645C10.0944 37.1885 11.8171 39.1641 14.5378 39.1641ZM21.8407 38.1113C20.9862 38.1113 20.4188 37.667 20.4188 36.9902C20.4188 36.3203 20.9657 35.8965 21.9227 35.835L23.8231 35.7188V36.2998C23.8231 37.3252 22.9618 38.1113 21.8407 38.1113ZM21.5741 39.123C22.5311 39.123 23.4335 38.5898 23.8573 37.7764H23.8847V39H25.0126V34.085C25.0126 32.6699 23.9599 31.7676 22.2919 31.7676C20.6102 31.7676 19.5575 32.7109 19.4755 33.9414H20.6239C20.7743 33.2441 21.3485 32.8135 22.2645 32.8135C23.2489 32.8135 23.8231 33.333 23.8231 34.2012V34.7959L21.786 34.9121C20.1454 35.0078 19.2089 35.7734 19.2089 36.9902C19.2089 38.2686 20.1591 39.123 21.5741 39.123ZM26.1153 39H27.3048V34.5703C27.3048 33.5654 27.9064 32.9023 28.8292 32.9023C29.1163 32.9023 29.3692 32.9365 29.4649 32.9707V31.8154C29.3692 31.8018 29.1915 31.7676 28.9864 31.7676C28.1524 31.7676 27.4962 32.2666 27.2638 33.0527H27.2364V31.8906H26.1153V39ZM30.4105 30.1748V31.8906H29.3509V32.8682H30.4105V37.1543C30.4105 38.5215 30.9163 39.0547 32.222 39.0547C32.5023 39.0547 32.8304 39.0342 32.9739 39V38.002C32.8919 38.0156 32.6185 38.0361 32.4818 38.0361C31.8734 38.0361 31.5999 37.7422 31.5999 37.0928V32.8682H32.9808V31.8906H31.5999V30.1748H30.4105Z" fill="white"/>
</svg>
