<svg width="32" height="34" viewBox="0 0 32 34" fill="none" xmlns="http://www.w3.org/2000/svg">
<path fill-rule="evenodd" clip-rule="evenodd" d="M16.1982 0.571045H15.7322C11.8591 0.652607 8.04435 2.20229 5.23162 4.8682C1.93419 7.92095 0.0419462 12.3696 0 16.8532V17.2703C0.0792317 21.6607 1.91787 26.0068 5.11977 29.0269C7.9558 31.7674 11.8428 33.3637 15.7881 33.4289H16.2448C21.5767 33.3683 26.7081 30.3832 29.4812 25.846C31.8535 22.0848 32.5829 17.3542 31.5296 13.0407C30.6464 9.31916 28.4186 5.92851 25.3332 3.66341C22.7115 1.70592 19.4677 0.631634 16.1982 0.571045ZM8.95781 13.9215C10.4632 14.3619 12.0688 14.0939 13.5346 13.6209C14.3424 13.3546 15.1375 13.0502 15.9327 12.7458C17.2182 12.2536 18.5039 11.7615 19.8429 11.4303C21.6349 11.0109 23.6483 11.3488 25.0838 12.5372C25.3678 12.81 25.3672 13.2042 25.3666 13.5779C25.3664 13.6703 25.3663 13.7615 25.3704 13.8492C25.3544 15.0523 25.3601 16.2557 25.3658 17.459C25.3742 19.2323 25.3826 21.0053 25.3215 22.7768C25.1052 22.6848 24.89 22.5871 24.6745 22.4893C23.7875 22.0866 22.8957 21.6816 21.8982 21.6629C19.818 21.5485 17.8951 22.2389 15.9685 22.9307C14.4009 23.4935 12.8308 24.0572 11.1716 24.189C9.66624 24.2938 8.09326 23.9373 6.87216 23.0308C6.622 22.6846 6.63448 22.2512 6.64669 21.8269C6.65166 21.6544 6.65658 21.4834 6.64378 21.3203C6.66697 20.2436 6.6567 19.1648 6.64643 18.086C6.62987 16.3465 6.6133 14.6068 6.737 12.8751C7.01168 12.9975 7.27599 13.1431 7.54021 13.2887C7.99552 13.5395 8.45054 13.7902 8.95781 13.9215Z" fill="#108EE9"/>
</svg>
