<svg width="85" height="26" viewBox="0 0 85 26" fill="none" xmlns="http://www.w3.org/2000/svg">
<mask id="mask0_525_5835" style="mask-type:alpha" maskUnits="userSpaceOnUse" x="0" y="0" width="85" height="26">
<rect width="85" height="26" fill="#D9D9D9"/>
</mask>
<g mask="url(#mask0_525_5835)">
<path d="M11.25 0.75H8.75L8.68139 0.749998C7.56141 0.749957 6.62126 0.749922 5.87357 0.850446C5.0819 0.956884 4.35801 1.19224 3.77513 1.77513C3.19224 2.35801 2.95688 3.0819 2.85045 3.87357C2.74992 4.62126 2.74996 5.56141 2.75 6.68139L2.75 6.75V19.25L2.75 19.3186C2.74996 20.4386 2.74992 21.3787 2.85045 22.1264C2.95688 22.9181 3.19224 23.642 3.77513 24.2249C4.35801 24.8078 5.0819 25.0431 5.87357 25.1496C6.62127 25.2501 7.56142 25.25 8.68142 25.25H8.75H11.25H11.3186C12.4386 25.25 13.3787 25.2501 14.1264 25.1496C14.9181 25.0431 15.642 24.8078 16.2249 24.2249C16.8078 23.642 17.0431 22.9181 17.1496 22.1264C17.2501 21.3787 17.25 20.4386 17.25 19.3186L17.25 19.25V6.75L17.25 6.68139C17.25 5.56141 17.2501 4.62126 17.1496 3.87357C17.0431 3.0819 16.8078 2.35801 16.2249 1.77513C15.642 1.19224 14.9181 0.956884 14.1264 0.850446C13.3787 0.749922 12.4386 0.749957 11.3186 0.749998L11.25 0.75Z" stroke="#226F54" stroke-width="2"/>
<path d="M3.75 18H16.25" stroke="#226F54" stroke-width="2"/>
<path d="M27.9805 17.5H26.2168V7.63574H32.5059V9.16016H27.9805V12.0312H32.1162V13.501H27.9805V17.5ZM33.9436 17.5V7.12988H35.6389V17.5H33.9436ZM40.5151 11.2178C39.5033 11.2178 38.7924 11.9424 38.7172 13.0361H42.2377C42.2035 11.9287 41.5336 11.2178 40.5151 11.2178ZM42.2514 15.4424H43.8578C43.5365 16.8027 42.2992 17.6504 40.5356 17.6504C38.3344 17.6504 37.0082 16.1943 37.0082 13.7881C37.0082 11.3818 38.3549 9.87109 40.5219 9.87109C42.6547 9.87109 43.933 11.2861 43.933 13.6445V14.1914H38.7104V14.2803C38.7514 15.5244 39.4692 16.3037 40.5834 16.3037C41.4242 16.3037 42.0053 15.9961 42.2514 15.4424ZM47.8385 14.9229H47.7223L46.191 17.5H44.3658L46.7858 13.7881L44.3453 10.0215H46.3073L47.7975 12.5918H47.9137L49.3903 10.0215H51.2565L48.8434 13.7197L51.2838 17.5H49.3698L47.8385 14.9229ZM52.0037 12.1611C52.0037 10.8076 53.2342 9.87109 54.9979 9.87109C56.7752 9.87109 57.8895 10.6572 58.0125 12.0176H56.4198C56.2967 11.4912 55.7977 11.1562 55.0047 11.1562C54.2323 11.1562 53.6512 11.5254 53.6512 12.0654C53.6512 12.4893 54.0067 12.749 54.7586 12.9199L56.078 13.2207C57.5067 13.542 58.1698 14.1572 58.1698 15.2578C58.1698 16.6934 56.8504 17.6504 54.9842 17.6504C53.118 17.6504 51.9422 16.8438 51.8123 15.4834H53.4871C53.6512 16.0371 54.1776 16.3652 55.0252 16.3652C55.8797 16.3652 56.4744 15.9893 56.4744 15.4355C56.4744 15.0117 56.1532 14.7451 55.4422 14.5879L54.116 14.2803C52.6805 13.9521 52.0037 13.2891 52.0037 12.1611ZM59.5459 17.5V7.12988H61.2139V11.2314H61.337C61.6924 10.3906 62.4922 9.88477 63.6065 9.88477C65.2061 9.88477 66.1768 10.8965 66.1768 12.6738V17.5H64.4815V13.0771C64.4815 11.9424 63.962 11.3613 62.9776 11.3613C61.8633 11.3613 61.2412 12.0859 61.2412 13.1592V17.5H59.5459ZM67.7991 17.5V10.0215H69.4875V17.5H67.7991ZM68.6399 8.80469C68.0247 8.80469 67.594 8.4082 67.594 7.86816C67.594 7.32812 68.0247 6.93164 68.6399 6.93164C69.262 6.93164 69.6858 7.32812 69.6858 7.86816C69.6858 8.4082 69.262 8.80469 68.6399 8.80469ZM74.3227 11.2178C73.311 11.2178 72.6001 11.9424 72.5249 13.0361H76.0454C76.0112 11.9287 75.3413 11.2178 74.3227 11.2178ZM76.059 15.4424H77.6655C77.3442 16.8027 76.1069 17.6504 74.3432 17.6504C72.142 17.6504 70.8159 16.1943 70.8159 13.7881C70.8159 11.3818 72.1626 9.87109 74.3295 9.87109C76.4624 9.87109 77.7407 11.2861 77.7407 13.6445V14.1914H72.518V14.2803C72.559 15.5244 73.2768 16.3037 74.3911 16.3037C75.2319 16.3037 75.8129 15.9961 76.059 15.4424ZM79.0348 17.5V10.0215H80.6686V11.1836H80.7848C80.9899 10.4453 81.7965 9.89844 82.7604 9.89844C83.0065 9.89844 83.3073 9.92578 83.4645 9.97363V11.5459C83.3346 11.498 82.8835 11.4502 82.5964 11.4502C81.4958 11.4502 80.7301 12.1338 80.7301 13.1797V17.5H79.0348Z" fill="#226F54"/>
</g>
</svg>
