<svg width="32" height="32" viewBox="0 0 32 32" fill="none" xmlns="http://www.w3.org/2000/svg">
<path fill-rule="evenodd" clip-rule="evenodd" d="M13.2474 0.257118C14.9162 -0.0147721 16.6283 0.0167514 18.305 0.18422C19.8595 0.505365 21.4277 0.863945 22.8542 1.58307C25.7406 2.96026 28.1974 5.19251 29.8347 7.94097C31.1921 10.4806 32.126 13.3295 31.9861 16.2395C32.0256 22.2132 28.2408 27.9052 22.8798 30.4448C19.4043 32.0978 15.3614 32.3244 11.6476 31.4181C9.13556 30.6458 6.71219 29.3966 4.88186 27.4776C3.13821 25.8601 1.82211 23.7992 0.986736 21.5808C-0.102794 18.852 -0.201305 15.8179 0.261696 12.9434C1.10889 8.67389 3.74701 4.75907 7.48058 2.48937C9.21831 1.34468 11.2161 0.664953 13.2474 0.257118ZM11.017 7.92325C9.76001 8.05132 8.38676 8.49265 7.69128 9.62749C6.92292 10.7145 6.84276 12.074 6.7666 13.3657L6.76659 13.3658C6.76034 13.4718 6.75412 13.5773 6.74754 13.6822C6.73187 14.008 6.70279 14.3334 6.67369 14.6588C6.615 15.3154 6.55628 15.9723 6.60766 16.6336C6.64595 17.0801 6.67297 17.5281 6.7 17.9762L6.70001 17.9762C6.76755 19.0958 6.83511 20.2159 7.07854 21.3148C7.37998 22.6999 8.62713 23.7737 10.0023 24.0258C12.5653 24.4879 15.1763 24.4473 17.7716 24.4069L17.7718 24.4069C18.0094 24.4032 18.2469 24.3995 18.4841 24.3962C19.5461 24.3371 20.608 24.2288 21.6582 24.0613C23.2304 23.8564 24.6194 22.5758 24.8775 20.9996C25.3287 19.0668 25.4094 17.0729 25.2755 15.1008C25.0233 13.8359 24.1288 12.6951 22.9132 12.2321C22.3655 11.9675 21.758 11.9691 21.1621 11.9707C21.0571 11.971 20.9524 11.9713 20.8484 11.9701C19.6763 11.9715 18.5041 11.9709 17.3321 11.9702C15.2811 11.9691 13.2304 11.9679 11.1805 11.978C10.9449 11.9823 10.7249 11.9017 10.507 11.8218L10.507 11.8218L10.5069 11.8218C10.426 11.7922 10.3454 11.7627 10.2644 11.7376C10.2585 11.2963 10.2742 10.6362 10.8673 10.6244C12.4114 10.5896 13.9571 10.5998 15.5026 10.6101C17.5381 10.6236 19.5735 10.6372 21.605 10.5476C21.3843 9.52307 20.7597 8.45324 19.684 8.16953C18.7127 7.90946 17.7079 7.77746 16.709 7.68486C16.424 7.68131 16.1387 7.67586 15.8531 7.6704C14.2349 7.63948 12.6096 7.60842 11.017 7.92325ZM22.0188 16.5293C21.5006 16.3894 20.88 16.5943 20.6987 17.1282C20.5849 17.7429 20.7672 18.335 20.9483 18.9233C21.0244 19.1704 21.1002 19.4168 21.1538 19.6639C21.2129 19.6983 21.3016 19.7496 21.3903 19.8008C21.4789 19.852 21.5676 19.9032 21.6267 19.9377C21.8296 19.8195 22.0365 19.7131 22.2512 19.6205C22.2744 19.1006 22.3997 18.6005 22.525 18.1006C22.5805 17.8788 22.6361 17.657 22.6827 17.4336C22.5862 17.0651 22.3438 16.7282 22.0188 16.5293Z" fill="#01ACD7"/>
</svg>
