<svg width="43" height="42" viewBox="0 0 43 42" fill="none" xmlns="http://www.w3.org/2000/svg">
<path d="M23.1716 3H19C17.1144 3 16.1716 3 15.5858 3.58579C15 4.17157 15 5.11438 15 7V17C15 18.8856 15 19.8284 15.5858 20.4142C16.1716 21 17.1144 21 19 21H25C26.8856 21 27.8284 21 28.4142 20.4142C29 19.8284 29 18.8856 29 17V8.82843C29 8.41968 29 8.2153 28.9239 8.03153C28.8478 7.84776 28.7032 7.70324 28.4142 7.41421L24.5858 3.58579C24.2968 3.29676 24.1522 3.15224 23.9685 3.07612C23.7847 3 23.5803 3 23.1716 3Z" stroke="white" stroke-width="2"/>
<path d="M19 13L25 13" stroke="white" stroke-width="2" stroke-linecap="round"/>
<path d="M19 17L23 17" stroke="white" stroke-width="2" stroke-linecap="round"/>
<path d="M23 3V7C23 7.94281 23 8.41421 23.2929 8.70711C23.5858 9 24.0572 9 25 9H29" stroke="white" stroke-width="2"/>
<path d="M10.6791 39V29.1357H9.44861V33.4014H4.03455V29.1357H2.80408V39H4.03455V34.5088H9.44861V39H10.6791ZM12.0621 39H13.2515V31.8906H12.0621V39ZM12.6568 30.6943C13.067 30.6943 13.4019 30.3594 13.4019 29.9561C13.4019 29.5459 13.067 29.2178 12.6568 29.2178C12.2535 29.2178 11.9185 29.5459 11.9185 29.9561C11.9185 30.3594 12.2535 30.6943 12.6568 30.6943ZM14.3269 33.8525C14.3269 34.8232 14.9422 35.4658 16.1932 35.7871L17.4441 36.1084C18.2439 36.3203 18.5379 36.5938 18.5379 37.0996C18.5379 37.7422 17.9432 38.1523 16.9793 38.1523C16.0154 38.1523 15.4549 37.7559 15.325 37.0176H14.1355C14.2586 38.2754 15.3455 39.123 16.9041 39.123C18.5652 39.123 19.7342 38.248 19.7342 37.0107C19.7342 35.9648 19.2146 35.4453 17.7791 35.083L16.6785 34.8164C15.8719 34.6113 15.4959 34.2832 15.4959 33.791C15.4959 33.1689 16.0701 32.7383 16.9383 32.7383C17.8133 32.7383 18.367 33.1621 18.449 33.8457H19.5838C19.5291 32.6426 18.449 31.7676 16.9793 31.7676C15.4139 31.7676 14.3269 32.6357 14.3269 33.8525ZM20.9463 30.1748V31.8906H19.8867V32.8682H20.9463V37.1543C20.9463 38.5215 21.4521 39.0547 22.7578 39.0547C23.0381 39.0547 23.3662 39.0342 23.5098 39V38.002C23.4277 38.0156 23.1543 38.0361 23.0176 38.0361C22.4092 38.0361 22.1357 37.7422 22.1357 37.0928V32.8682H23.5166V31.8906H22.1357V30.1748H20.9463ZM27.1213 39.123C29.0832 39.123 30.4094 37.708 30.4094 35.4453C30.4094 33.1758 29.0832 31.7676 27.1213 31.7676C25.1525 31.7676 23.8264 33.1758 23.8264 35.4453C23.8264 37.708 25.1525 39.123 27.1213 39.123ZM27.1213 38.0771C25.8635 38.0771 25.0363 37.1201 25.0363 35.4453C25.0363 33.7705 25.8635 32.8135 27.1213 32.8135C28.3791 32.8135 29.1994 33.7705 29.1994 35.4453C29.1994 37.1201 28.3791 38.0771 27.1213 38.0771ZM31.2045 39H32.394V34.5703C32.394 33.5654 32.9955 32.9023 33.9184 32.9023C34.2055 32.9023 34.4584 32.9365 34.5541 32.9707V31.8154C34.4584 31.8018 34.2807 31.7676 34.0756 31.7676C33.2416 31.7676 32.5854 32.2666 32.3529 33.0527H32.3256V31.8906H31.2045V39ZM35.7047 41.6592C36.9899 41.6592 37.5778 41.1602 38.1862 39.499L40.9821 31.8906H39.7311L37.7623 37.8105H37.7418L35.7731 31.8906H34.5016L37.1266 39.0068L36.9625 39.5059C36.6891 40.333 36.3199 40.6543 35.6569 40.6543C35.5065 40.6543 35.3219 40.6475 35.192 40.6201V41.6182C35.3219 41.6455 35.5612 41.6592 35.7047 41.6592Z" fill="white"/>
</svg>
