<svg width="43" height="42" viewBox="0 0 43 42" fill="none" xmlns="http://www.w3.org/2000/svg">
<path fill-rule="evenodd" clip-rule="evenodd" d="M22 2V7L22 7.05441C21.9999 7.47848 21.9998 7.8906 22.0455 8.23052C22.097 8.61372 22.2226 9.051 22.5858 9.41421C22.949 9.77743 23.3863 9.90295 23.7695 9.95447C24.1094 10.0002 24.5215 10.0001 24.9456 10H24.9456H24.9456H24.9456L25 10H30V16C30 18.8284 30 20.2426 29.1213 21.1213C28.2426 22 26.8284 22 24 22H20C17.1716 22 15.7574 22 14.8787 21.1213C14 20.2426 14 18.8284 14 16V8C14 5.17157 14 3.75736 14.8787 2.87868C15.7574 2 17.1716 2 20 2H22ZM24 2.00462V7C24 7.49967 24.0021 7.77383 24.0277 7.96402L24.0287 7.97131L24.036 7.97231C24.2262 7.99788 24.5003 8 25 8H29.9954C29.9852 7.58836 29.9525 7.31595 29.8478 7.06306C29.6955 6.69552 29.4065 6.40649 28.8284 5.82843L26.1716 3.17157C25.5935 2.59351 25.3045 2.30448 24.9369 2.15224C24.684 2.04749 24.4116 2.01481 24 2.00462ZM18 13C18 12.4477 18.4477 12 19 12L25 12C25.5523 12 26 12.4477 26 13C26 13.5523 25.5523 14 25 14L19 14C18.4477 14 18 13.5523 18 13ZM19 16C18.4477 16 18 16.4477 18 17C18 17.5523 18.4477 18 19 18H23C23.5523 18 24 17.5523 24 17C24 16.4477 23.5523 16 23 16H19Z" fill="white"/>
<path d="M9.56482 39V29.1357H7.80798V33.2373H3.00916V29.1357H1.24548V39H3.00916V34.7207H7.80798V39H9.56482ZM10.7701 39H12.4722V31.7539H10.7701V39ZM11.6178 30.8037C12.151 30.8037 12.568 30.3936 12.568 29.8809C12.568 29.3613 12.151 28.9512 11.6178 28.9512C11.0914 28.9512 10.6744 29.3613 10.6744 29.8809C10.6744 30.3936 11.0914 30.8037 11.6178 30.8037ZM13.3631 33.832C13.3631 34.8779 14.0398 35.5752 15.3797 35.8896L16.699 36.1973C17.4031 36.375 17.6697 36.6006 17.6697 37.0244C17.6697 37.5645 17.157 37.8994 16.3299 37.8994C15.4685 37.8994 14.9559 37.5303 14.8533 36.8672H13.1785C13.2947 38.2412 14.45 39.1436 16.2684 39.1436C18.1004 39.1436 19.365 38.2207 19.365 36.8535C19.365 35.7803 18.7976 35.2197 17.3484 34.8779L16.0564 34.5908C15.3455 34.4199 15.0174 34.1465 15.0174 33.7363C15.0174 33.21 15.5096 32.8545 16.2615 32.8545C17.0545 32.8545 17.5535 33.2373 17.6082 33.8594H19.1941C19.1531 32.5195 17.9978 31.6035 16.2957 31.6035C14.532 31.6035 13.3631 32.5059 13.3631 33.832ZM20.5156 30.0586V31.7539H19.4766V33.0664H20.5156V37.0723C20.5156 38.4805 21.1309 39.0342 22.6963 39.0342C23.0586 39.0342 23.3936 39.0068 23.5781 38.9658V37.667C23.4688 37.6875 23.25 37.7012 23.0928 37.7012C22.4912 37.7012 22.2178 37.4277 22.2178 36.833V33.0664H23.585V31.7539H22.2178V30.0586H20.5156ZM27.4084 39.1436C29.5344 39.1436 30.9152 37.7285 30.9152 35.377C30.9152 33.0322 29.5207 31.6035 27.4084 31.6035C25.2961 31.6035 23.9016 33.0391 23.9016 35.377C23.9016 37.7285 25.2824 39.1436 27.4084 39.1436ZM27.4084 37.7969C26.3283 37.7969 25.6311 36.9219 25.6311 35.377C25.6311 33.8389 26.3352 32.957 27.4084 32.957C28.4885 32.957 29.1857 33.8389 29.1857 35.377C29.1857 36.9219 28.4885 37.7969 27.4084 37.7969ZM31.601 39H33.3031V34.7822C33.3031 33.7637 33.8842 33.1416 34.8481 33.1416C35.1352 33.1416 35.3949 33.1826 35.5385 33.2373V31.6992C35.4154 31.6719 35.224 31.6309 35.0053 31.6309C34.1508 31.6309 33.5151 32.1367 33.269 33.0186H33.2348V31.7539H31.601V39ZM36.8121 41.6934C38.4664 41.6934 39.2662 41.085 39.8883 39.2871L42.5065 31.7539H40.7155L39.0065 37.5508H38.9791L37.2701 31.7539H35.4108L37.9879 39.0068C37.9948 39.0273 37.8922 39.3896 37.8922 39.4102C37.7008 40.0801 37.3385 40.3467 36.6344 40.3467C36.5319 40.3467 36.2311 40.3398 36.1422 40.3193V41.666C36.2311 41.6865 36.7164 41.6934 36.8121 41.6934Z" fill="white"/>
</svg>
