<svg width="43" height="40" viewBox="0 0 43 40" fill="none" xmlns="http://www.w3.org/2000/svg">
<path fill-rule="evenodd" clip-rule="evenodd" d="M14.2745 10.1262C14 10.7229 14 11.4018 14 12.7595V16.9999C14 18.8856 14 19.8284 14.5858 20.4142C15.1173 20.9457 15.9428 20.9949 17.5 20.9995V16C17.5 14.8954 18.3954 14 19.5 14H22.5C23.6046 14 24.5 14.8954 24.5 16V20.9995C26.0572 20.9949 26.8827 20.9457 27.4142 20.4142C28 19.8284 28 18.8856 28 16.9999V12.7595C28 11.4018 28 10.7229 27.7255 10.1262C27.4511 9.52943 26.9356 9.08763 25.9047 8.20401L24.9047 7.34687C23.0414 5.74974 22.1098 4.95117 21 4.95117C19.8902 4.95117 18.9586 5.74974 17.0953 7.34687L16.0953 8.20401C15.0644 9.08763 14.5489 9.52943 14.2745 10.1262ZM22.5 20.9999V16H19.5V20.9999H22.5Z" fill="white"/>
<path d="M12.0778 39V29.1357H10.321V33.2373H5.52212V29.1357H3.75845V39H5.52212V34.7207H10.321V39H12.0778ZM16.4481 39.1436C18.5741 39.1436 19.9549 37.7285 19.9549 35.377C19.9549 33.0322 18.5604 31.6035 16.4481 31.6035C14.3358 31.6035 12.9413 33.0391 12.9413 35.377C12.9413 37.7285 14.3221 39.1436 16.4481 39.1436ZM16.4481 37.7969C15.368 37.7969 14.6708 36.9219 14.6708 35.377C14.6708 33.8389 15.3749 32.957 16.4481 32.957C17.5282 32.957 18.2255 33.8389 18.2255 35.377C18.2255 36.9219 17.5282 37.7969 16.4481 37.7969ZM20.6407 39H22.3428V34.5635C22.3428 33.6885 22.9171 33.0527 23.7374 33.0527C24.5303 33.0527 25.0225 33.5518 25.0225 34.3584V39H26.6768V34.5225C26.6768 33.6543 27.2374 33.0527 28.0577 33.0527C28.8917 33.0527 29.3565 33.5586 29.3565 34.4473V39H31.0587V34.0303C31.0587 32.5811 30.1221 31.6172 28.6934 31.6172C27.6475 31.6172 26.7862 32.1777 26.4376 33.0732H26.3966C26.13 32.1436 25.3985 31.6172 24.3731 31.6172C23.3887 31.6172 22.6231 32.1709 22.3087 33.0117H22.2745V31.7539H20.6407V39ZM35.1419 32.9229C36.1194 32.9229 36.7757 33.6406 36.8098 34.666H33.4261C33.4944 33.6543 34.1848 32.9229 35.1419 32.9229ZM36.8167 36.833C36.6321 37.4346 36.0305 37.8311 35.2376 37.8311C34.1233 37.8311 33.4124 37.0518 33.4124 35.8896V35.7871H38.4778V35.2334C38.4778 33.0322 37.1927 31.6035 35.135 31.6035C33.0432 31.6035 31.7171 33.1143 31.7171 35.4043C31.7171 37.7148 33.0296 39.1436 35.2034 39.1436C36.9192 39.1436 38.1907 38.2002 38.4095 36.833H36.8167Z" fill="white"/>
</svg>
