<svg width="43" height="40" viewBox="0 0 43 40" fill="none" xmlns="http://www.w3.org/2000/svg">
<path d="M14 12.7596C14 11.4019 14 10.723 14.2745 10.1262C14.5489 9.52949 15.0644 9.08769 16.0953 8.20407L17.0953 7.34693C18.9586 5.7498 19.8902 4.95123 21 4.95123C22.1098 4.95123 23.0414 5.7498 24.9047 7.34693L25.9047 8.20407C26.9356 9.08769 27.4511 9.52949 27.7255 10.1262C28 10.723 28 11.4019 28 12.7596V17C28 18.8856 28 19.8284 27.4142 20.4142C26.8284 21 25.8856 21 24 21H18C16.1144 21 15.1716 21 14.5858 20.4142C14 19.8284 14 18.8856 14 17V12.7596Z" stroke="white" stroke-width="2"/>
<path d="M23.5 21V16C23.5 15.4477 23.0523 15 22.5 15H19.5C18.9477 15 18.5 15.4477 18.5 16V21" stroke="white" stroke-width="2" stroke-linecap="round" stroke-linejoin="round"/>
<path d="M13.1159 39V29.1357H11.8854V33.4014H6.47137V29.1357H5.24091V39H6.47137V34.5088H11.8854V39H13.1159ZM17.3837 39.123C19.3456 39.123 20.6718 37.708 20.6718 35.4453C20.6718 33.1758 19.3456 31.7676 17.3837 31.7676C15.4149 31.7676 14.0888 33.1758 14.0888 35.4453C14.0888 37.708 15.4149 39.123 17.3837 39.123ZM17.3837 38.0771C16.1259 38.0771 15.2987 37.1201 15.2987 35.4453C15.2987 33.7705 16.1259 32.8135 17.3837 32.8135C18.6415 32.8135 19.4618 33.7705 19.4618 35.4453C19.4618 37.1201 18.6415 38.0771 17.3837 38.0771ZM21.4669 39H22.6564V34.543C22.6564 33.5586 23.3399 32.8203 24.2833 32.8203C25.1651 32.8203 25.7394 33.3809 25.7394 34.2354V39H26.9288V34.4814C26.9288 33.5176 27.5919 32.8203 28.5353 32.8203C29.4718 32.8203 30.0118 33.3945 30.0118 34.3652V39H31.2013V34.0918C31.2013 32.6836 30.2921 31.7676 28.8839 31.7676C27.8858 31.7676 27.0519 32.2734 26.6554 33.1211H26.628C26.3204 32.2598 25.6026 31.7676 24.6319 31.7676C23.6749 31.7676 22.9503 32.2734 22.6153 33.0254H22.588V31.8906H21.4669V39ZM35.1614 32.7998C36.2825 32.7998 37.0276 33.6475 37.055 34.8369H33.1927C33.2679 33.6543 34.0472 32.7998 35.1614 32.7998ZM37.0276 36.9629C36.8294 37.6328 36.1663 38.0908 35.264 38.0908C33.9857 38.0908 33.1859 37.1953 33.1859 35.835V35.7666H38.2855V35.3154C38.2855 33.1621 37.1028 31.7676 35.1819 31.7676C33.22 31.7676 31.9622 33.2646 31.9622 35.4727C31.9622 37.708 33.1995 39.123 35.2366 39.123C36.7884 39.123 37.9915 38.207 38.1966 36.9629H37.0276Z" fill="white"/>
</svg>
