<svg width="32" height="22" viewBox="0 0 32 22" fill="none" xmlns="http://www.w3.org/2000/svg">
<g opacity="0.01">
<rect y="0.563721" width="32" height="20.8725" fill="white"/>
</g>
<rect x="11.7805" y="4.2002" width="8.44143" height="13.5972" fill="#FF5F00"/>
<path fill-rule="evenodd" clip-rule="evenodd" d="M12.6499 11C12.6478 8.34714 13.8827 5.8406 15.9987 4.20265C12.4039 1.41645 7.24153 1.82229 4.13964 5.13494C1.03776 8.4476 1.03776 13.5549 4.13964 16.8675C7.24153 20.1802 12.4039 20.586 15.9987 17.7998C13.882 16.1614 12.647 13.6538 12.6499 11Z" fill="#EB001B"/>
<path fill-rule="evenodd" clip-rule="evenodd" d="M29.3645 16.1392V16.7043H29.3056V16.1392H29.1797V16.0223H29.4985V16.1392H29.3645ZM29.9834 16.0224V16.7043H29.9164V16.188L29.8119 16.6312H29.7396L29.6351 16.188V16.7043H29.5654V16.0224H29.6619L29.7744 16.5095L29.8869 16.0224H29.9834Z" fill="#F79E1B"/>
<path fill-rule="evenodd" clip-rule="evenodd" d="M30.1856 11C30.1855 14.3106 28.2687 17.3306 25.2492 18.7773C22.2298 20.224 18.6378 19.8435 15.9988 17.7973C18.1139 16.158 19.3489 13.6518 19.3489 10.9988C19.3489 8.34571 18.1139 5.83951 15.9988 4.20017C18.6378 2.15401 22.2298 1.77349 25.2492 3.22022C28.2687 4.66694 30.1855 7.68692 30.1856 10.9976V11Z" fill="#F79E1B"/>
</svg>
