<svg width="120" height="120" viewBox="0 0 120 120" fill="none" xmlns="http://www.w3.org/2000/svg">
<path d="M120 91.776H0V91.836H120V91.776Z" fill="#EBEBEB"/>
<path d="M107.976 95.6376H100.027V95.6976H107.976V95.6376Z" fill="#EBEBEB"/>
<path d="M79.4928 96.2904H77.4072V96.3504H79.4928V96.2904Z" fill="#EBEBEB"/>
<path d="M99.7872 93.4104H95.1816V93.4704H99.7872V93.4104Z" fill="#EBEBEB"/>
<path d="M22.9561 93.8136H12.5905V93.8736H22.9561V93.8136Z" fill="#EBEBEB"/>
<path d="M26.6136 93.8136H25.0944V93.8736H26.6136V93.8136Z" fill="#EBEBEB"/>
<path d="M54.0361 94.8264H31.5529V94.8864H54.0361V94.8264Z" fill="#EBEBEB"/>
<path d="M56.88 81.072H10.5384C10.1754 81.0714 9.82742 80.9267 9.57094 80.6698C9.31446 80.4128 9.17041 80.0646 9.17041 79.7016V14.5584C9.17357 14.1974 9.31902 13.8523 9.57516 13.598C9.8313 13.3436 10.1774 13.2006 10.5384 13.2H56.88C57.2435 13.2 57.592 13.3444 57.849 13.6014C58.106 13.8584 58.2504 14.2069 58.2504 14.5704V79.7016C58.2504 80.065 58.106 80.4136 57.849 80.6706C57.592 80.9276 57.2435 81.072 56.88 81.072ZM10.5384 13.248C10.1913 13.2486 9.8586 13.387 9.61337 13.6327C9.36814 13.8783 9.23041 14.2113 9.23041 14.5584V79.7016C9.23041 80.0487 9.36814 80.3817 9.61337 80.6273C9.8586 80.873 10.1913 81.0114 10.5384 81.012H56.88C57.2274 81.0114 57.5603 80.8731 57.8059 80.6275C58.0515 80.3819 58.1898 80.0489 58.1904 79.7016V14.5584C58.1898 14.2111 58.0515 13.8781 57.8059 13.6325C57.5603 13.3869 57.2274 13.2486 56.88 13.248H10.5384Z" fill="#EBEBEB"/>
<path d="M108.794 81.072H62.4504C62.0871 81.0714 61.7389 80.9268 61.482 80.6699C61.2252 80.4131 61.0806 80.0648 61.08 79.7016V14.5584C61.0837 14.1972 61.2297 13.8521 61.4862 13.5978C61.7428 13.3435 62.0892 13.2006 62.4504 13.2H108.794C109.155 13.2012 109.5 13.3445 109.756 13.5988C110.012 13.8531 110.157 14.1979 110.16 14.5584V79.7016C110.16 80.0642 110.016 80.4121 109.76 80.6689C109.504 80.9258 109.157 81.0707 108.794 81.072ZM62.4504 13.248C62.103 13.2486 61.7701 13.3869 61.5245 13.6325C61.2789 13.8781 61.1406 14.2111 61.14 14.5584V79.7016C61.1406 80.0489 61.2789 80.3819 61.5245 80.6275C61.7701 80.8731 62.103 81.0114 62.4504 81.012H108.794C109.142 81.0114 109.475 80.8731 109.72 80.6275C109.966 80.3819 110.104 80.0489 110.105 79.7016V14.5584C110.104 14.2111 109.966 13.8781 109.72 13.6325C109.475 13.3869 109.142 13.2486 108.794 13.248H62.4504Z" fill="#EBEBEB"/>
<path d="M107.976 26.808H82.6608V91.7544H107.976V26.808Z" fill="#EBEBEB"/>
<path d="M107.976 26.808H103.517V91.7544H107.976V26.808Z" fill="#F5F5F5"/>
<path d="M88.2551 29.5416H84.7823V35.8896H88.2551V29.5416Z" fill="#E6E6E6"/>
<path d="M92.568 29.5416H89.0952V35.8896H92.568V29.5416Z" fill="#E6E6E6"/>
<path d="M96.8808 29.5416H93.408V35.8896H96.8808V29.5416Z" fill="#E6E6E6"/>
<path d="M101.194 29.5416H97.7208V35.8896H101.194V29.5416Z" fill="#E6E6E6"/>
<path d="M88.2551 37.7448H84.7823V44.0928H88.2551V37.7448Z" fill="#E6E6E6"/>
<path d="M92.568 37.7448H89.0952V44.0928H92.568V37.7448Z" fill="#E6E6E6"/>
<path d="M96.8808 37.7448H93.408V44.0928H96.8808V37.7448Z" fill="#E6E6E6"/>
<path d="M101.194 37.7448H97.7208V44.0928H101.194V37.7448Z" fill="#E6E6E6"/>
<path d="M88.2551 45.948H84.7823V52.296H88.2551V45.948Z" fill="#E6E6E6"/>
<path d="M92.568 45.948H89.0952V52.296H92.568V45.948Z" fill="#E6E6E6"/>
<path d="M96.8808 45.948H93.408V52.296H96.8808V45.948Z" fill="#E6E6E6"/>
<path d="M101.194 45.948H97.7208V52.296H101.194V45.948Z" fill="#E6E6E6"/>
<path d="M88.2551 54.1536H84.7823V60.5016H88.2551V54.1536Z" fill="#E6E6E6"/>
<path d="M92.568 54.1536H89.0952V60.5016H92.568V54.1536Z" fill="#E6E6E6"/>
<path d="M96.8808 54.1536H93.408V60.5016H96.8808V54.1536Z" fill="#E6E6E6"/>
<path d="M101.194 54.1536H97.7208V60.5016H101.194V54.1536Z" fill="#E6E6E6"/>
<path d="M88.2551 62.3568H84.7823V68.7048H88.2551V62.3568Z" fill="#E6E6E6"/>
<path d="M92.568 62.3568H89.0952V68.7048H92.568V62.3568Z" fill="#E6E6E6"/>
<path d="M96.8808 62.3568H93.408V68.7048H96.8808V62.3568Z" fill="#E6E6E6"/>
<path d="M101.194 62.3568H97.7208V68.7048H101.194V62.3568Z" fill="#E6E6E6"/>
<path d="M88.2551 70.56H84.7823V76.908H88.2551V70.56Z" fill="#E6E6E6"/>
<path d="M92.568 70.56H89.0952V76.908H92.568V70.56Z" fill="#E6E6E6"/>
<path d="M96.8808 70.56H93.408V76.908H96.8808V70.56Z" fill="#E6E6E6"/>
<path d="M101.194 70.56H97.7208V76.908H101.194V70.56Z" fill="#E6E6E6"/>
<path d="M69.5184 37.8024H29.1864V91.5168H69.5184V37.8024Z" fill="#F0F0F0"/>
<path d="M62.1984 39.1488H30.0432V46.4208H62.1984V39.1488Z" fill="#E6E6E6"/>
<path d="M62.1984 47.8536H30.0432V55.1256H62.1984V47.8536Z" fill="#E6E6E6"/>
<path d="M62.1984 56.556H30.0432V63.828H62.1984V56.556Z" fill="#E6E6E6"/>
<path d="M62.1984 65.2608H30.0432V72.5328H62.1984V65.2608Z" fill="#E6E6E6"/>
<path d="M62.1984 73.9656H30.0432V81.2376H62.1984V73.9656Z" fill="#E6E6E6"/>
<path d="M62.1984 82.6704H30.0432V89.9424H62.1984V82.6704Z" fill="#E6E6E6"/>
<path d="M69.5184 37.8024H63.8496V91.5168H69.5184V37.8024Z" fill="#F5F5F5"/>
<path d="M36.3432 41.5824H32.8728V46.4208H36.3432V41.5824Z" fill="#EBEBEB"/>
<path d="M40.9584 41.5824H37.488V46.4208H40.9584V41.5824Z" fill="#EBEBEB"/>
<path d="M45.576 41.5824H42.1056V46.4208H45.576V41.5824Z" fill="#EBEBEB"/>
<path d="M50.1912 41.5824H46.7208V46.4208H50.1912V41.5824Z" fill="#EBEBEB"/>
<path d="M54.8088 41.5824H51.3384V46.4208H54.8088V41.5824Z" fill="#EBEBEB"/>
<path d="M59.4265 41.5824H55.9561V46.4208H59.4265V41.5824Z" fill="#EBEBEB"/>
<path d="M36.2016 50.2704H32.7312V55.1088H36.2016V50.2704Z" fill="#EBEBEB"/>
<path d="M40.8168 50.2704H37.3464V55.1088H40.8168V50.2704Z" fill="#EBEBEB"/>
<path d="M45.4344 50.2704H41.964V55.1088H45.4344V50.2704Z" fill="#EBEBEB"/>
<path d="M50.0519 50.2704H46.5815V55.1088H50.0519V50.2704Z" fill="#EBEBEB"/>
<path d="M54.6672 50.2704H51.1968V55.1088H54.6672V50.2704Z" fill="#EBEBEB"/>
<path d="M59.2849 50.2704H55.8145V55.1088H59.2849V50.2704Z" fill="#EBEBEB"/>
<path d="M36.06 58.9584H32.5896V63.7968H36.06V58.9584Z" fill="#EBEBEB"/>
<path d="M40.6776 58.9584H37.2072V63.7968H40.6776V58.9584Z" fill="#EBEBEB"/>
<path d="M45.2928 58.9584H41.8224V63.7968H45.2928V58.9584Z" fill="#EBEBEB"/>
<path d="M49.9103 58.9584H46.4399V63.7968H49.9103V58.9584Z" fill="#EBEBEB"/>
<path d="M54.528 58.9584H51.0576V63.7968H54.528V58.9584Z" fill="#EBEBEB"/>
<path d="M59.1432 58.9584H55.6729V63.7968H59.1432V58.9584Z" fill="#EBEBEB"/>
<path d="M35.9184 67.6464H32.448V72.4848H35.9184V67.6464Z" fill="#EBEBEB"/>
<path d="M40.5359 67.6464H37.0656V72.4848H40.5359V67.6464Z" fill="#EBEBEB"/>
<path d="M45.1536 67.6464H41.6832V72.4848H45.1536V67.6464Z" fill="#EBEBEB"/>
<path d="M49.7687 67.6464H46.2983V72.4848H49.7687V67.6464Z" fill="#EBEBEB"/>
<path d="M54.3864 67.6464H50.916V72.4848H54.3864V67.6464Z" fill="#EBEBEB"/>
<path d="M59.0016 67.6464H55.5312V72.4848H59.0016V67.6464Z" fill="#EBEBEB"/>
<path d="M35.7792 76.3344H32.3088V81.1728H35.7792V76.3344Z" fill="#EBEBEB"/>
<path d="M40.3943 76.3344H36.924V81.1728H40.3943V76.3344Z" fill="#EBEBEB"/>
<path d="M45.012 76.3344H41.5416V81.1728H45.012V76.3344Z" fill="#EBEBEB"/>
<path d="M49.6296 76.3344H46.1592V81.1728H49.6296V76.3344Z" fill="#EBEBEB"/>
<path d="M54.2448 76.3344H50.7744V81.1728H54.2448V76.3344Z" fill="#EBEBEB"/>
<path d="M58.8624 76.3344H55.392V81.1728H58.8624V76.3344Z" fill="#EBEBEB"/>
<path d="M35.6376 85.0224H32.1672V89.8608H35.6376V85.0224Z" fill="#EBEBEB"/>
<path d="M40.2552 85.0224H36.7848V89.8608H40.2552V85.0224Z" fill="#EBEBEB"/>
<path d="M44.8704 85.0224H41.4V89.8608H44.8704V85.0224Z" fill="#EBEBEB"/>
<path d="M49.488 85.0224H46.0176V89.8608H49.488V85.0224Z" fill="#EBEBEB"/>
<path d="M54.1032 85.0224H50.6328V89.8608H54.1032V85.0224Z" fill="#EBEBEB"/>
<path d="M58.7208 85.0224H55.2504V89.8608H58.7208V85.0224Z" fill="#EBEBEB"/>
<path d="M52.9225 35.8992H12.5905V91.5168H52.9225V35.8992Z" fill="#F0F0F0"/>
<path d="M45.6023 37.2936H13.4471V44.8224H45.6023V37.2936Z" fill="#E6E6E6"/>
<path d="M45.6023 46.3056H13.4471V53.8344H45.6023V46.3056Z" fill="#E6E6E6"/>
<path d="M45.6023 55.3176H13.4471V62.8464H45.6023V55.3176Z" fill="#E6E6E6"/>
<path d="M45.6023 64.332H13.4471V71.8608H45.6023V64.332Z" fill="#E6E6E6"/>
<path d="M45.6023 73.344H13.4471V80.8728H45.6023V73.344Z" fill="#E6E6E6"/>
<path d="M45.6023 82.356H13.4471V89.8848H45.6023V82.356Z" fill="#E6E6E6"/>
<path d="M52.9225 35.8992H47.2537V91.5168H52.9225V35.8992Z" fill="#F5F5F5"/>
<path d="M19.7473 39.8136H16.2769V44.8224H19.7473V39.8136Z" fill="#EBEBEB"/>
<path d="M24.3624 39.8136H20.892V44.8224H24.3624V39.8136Z" fill="#EBEBEB"/>
<path d="M28.98 39.8136H25.5096V44.8224H28.98V39.8136Z" fill="#EBEBEB"/>
<path d="M33.5952 39.8136H30.1248V44.8224H33.5952V39.8136Z" fill="#EBEBEB"/>
<path d="M38.2128 39.8136H34.7424V44.8224H38.2128V39.8136Z" fill="#EBEBEB"/>
<path d="M42.8304 39.8136H39.36V44.8224H42.8304V39.8136Z" fill="#EBEBEB"/>
<path d="M19.6057 48.8088H16.1353V53.8176H19.6057V48.8088Z" fill="#EBEBEB"/>
<path d="M24.2232 48.8088H20.7528V53.8176H24.2232V48.8088Z" fill="#EBEBEB"/>
<path d="M28.8384 48.8088H25.368V53.8176H28.8384V48.8088Z" fill="#EBEBEB"/>
<path d="M33.456 48.8088H29.9856V53.8176H33.456V48.8088Z" fill="#EBEBEB"/>
<path d="M38.0712 48.8088H34.6008V53.8176H38.0712V48.8088Z" fill="#EBEBEB"/>
<path d="M42.6888 48.8088H39.2184V53.8176H42.6888V48.8088Z" fill="#EBEBEB"/>
<path d="M19.4641 57.804H15.9937V62.8128H19.4641V57.804Z" fill="#EBEBEB"/>
<path d="M24.0816 57.804H20.6112V62.8128H24.0816V57.804Z" fill="#EBEBEB"/>
<path d="M28.6968 57.804H25.2264V62.8128H28.6968V57.804Z" fill="#EBEBEB"/>
<path d="M33.3144 57.804H29.844V62.8128H33.3144V57.804Z" fill="#EBEBEB"/>
<path d="M37.9319 57.804H34.4615V62.8128H37.9319V57.804Z" fill="#EBEBEB"/>
<path d="M42.5472 57.804H39.0768V62.8128H42.5472V57.804Z" fill="#EBEBEB"/>
<path d="M19.3248 66.8016H15.8544V71.8104H19.3248V66.8016Z" fill="#EBEBEB"/>
<path d="M23.94 66.8016H20.4696V71.8104H23.94V66.8016Z" fill="#EBEBEB"/>
<path d="M28.5576 66.8016H25.0872V71.8104H28.5576V66.8016Z" fill="#EBEBEB"/>
<path d="M33.1728 66.8016H29.7024V71.8104H33.1728V66.8016Z" fill="#EBEBEB"/>
<path d="M37.7903 66.8016H34.3199V71.8104H37.7903V66.8016Z" fill="#EBEBEB"/>
<path d="M42.408 66.8016H38.9376V71.8104H42.408V66.8016Z" fill="#EBEBEB"/>
<path d="M19.1832 75.7968H15.7128V80.8056H19.1832V75.7968Z" fill="#EBEBEB"/>
<path d="M23.7984 75.7968H20.328V80.8056H23.7984V75.7968Z" fill="#EBEBEB"/>
<path d="M28.416 75.7968H24.9456V80.8056H28.416V75.7968Z" fill="#EBEBEB"/>
<path d="M33.0336 75.7968H29.5632V80.8056H33.0336V75.7968Z" fill="#EBEBEB"/>
<path d="M37.6487 75.7968H34.1783V80.8056H37.6487V75.7968Z" fill="#EBEBEB"/>
<path d="M42.2664 75.7968H38.796V80.8056H42.2664V75.7968Z" fill="#EBEBEB"/>
<path d="M19.0416 84.7944H15.5712V89.8032H19.0416V84.7944Z" fill="#EBEBEB"/>
<path d="M23.6592 84.7944H20.1888V89.8032H23.6592V84.7944Z" fill="#EBEBEB"/>
<path d="M28.2744 84.7944H24.804V89.8032H28.2744V84.7944Z" fill="#EBEBEB"/>
<path d="M32.892 84.7944H29.4216V89.8032H32.892V84.7944Z" fill="#EBEBEB"/>
<path d="M37.5096 84.7944H34.0392V89.8032H37.5096V84.7944Z" fill="#EBEBEB"/>
<path d="M42.1248 84.7944H38.6544V89.8032H42.1248V84.7944Z" fill="#EBEBEB"/>
<path d="M25.8528 13.248H24.9456V19.9416H25.8528V13.248Z" fill="#F5F5F5"/>
<path d="M48.6528 13.248H47.7456V19.9416H48.6528V13.248Z" fill="#F5F5F5"/>
<path d="M51.7512 18.6528H21.204V28.38H51.7512V18.6528Z" fill="#EBEBEB"/>
<path d="M51.7488 18.6528H50.4768V28.38H51.7488V18.6528Z" fill="#E6E6E6"/>
<path d="M60 102.614C85.6998 102.614 106.534 101.398 106.534 99.8976C106.534 98.3971 85.6998 97.1808 60 97.1808C34.3002 97.1808 13.4664 98.3971 13.4664 99.8976C13.4664 101.398 34.3002 102.614 60 102.614Z" fill="#F5F5F5"/>
<path d="M19.5551 93.2352C19.5551 93.2352 18.1991 90.276 19.7495 87.36C21.2999 84.444 21.7463 83.76 20.7599 83.16C19.7735 82.56 19.3199 85.4928 19.3199 85.4928C19.3199 85.4928 18.4895 83.4768 19.1759 81.3672C19.8623 79.2576 20.2943 75.8208 19.3559 75.4512C18.4175 75.0816 19.1759 79.7376 18.3623 81.3264C17.9473 80.2116 17.6794 79.0473 17.5655 77.8632C17.4527 76.1688 17.6279 73.464 16.8863 72.7704C16.1447 72.0768 15.6719 72.5568 16.4063 76.296C16.8433 78.5307 17.0842 80.7993 17.1263 83.076C17.1263 83.076 15.5159 78.1704 14.4359 78.036C13.3559 77.9016 13.3583 79.476 14.2823 80.8584C15.2063 82.2408 16.9895 84.6984 17.2823 85.9752C17.2823 85.9752 15.5159 82.284 13.9223 83.4168C12.3287 84.5496 15.3047 86.7768 16.6295 87.5832C17.9543 88.3896 18.8735 93.4392 18.8735 93.4392L19.5551 93.2352Z" fill="#407BFF"/>
<path opacity="0.6" d="M19.5551 93.2352C19.5551 93.2352 18.1991 90.276 19.7495 87.36C21.2999 84.444 21.7463 83.76 20.7599 83.16C19.7735 82.56 19.3199 85.4928 19.3199 85.4928C19.3199 85.4928 18.4895 83.4768 19.1759 81.3672C19.8623 79.2576 20.2943 75.8208 19.3559 75.4512C18.4175 75.0816 19.1759 79.7376 18.3623 81.3264C17.9473 80.2116 17.6794 79.0473 17.5655 77.8632C17.4527 76.1688 17.6279 73.464 16.8863 72.7704C16.1447 72.0768 15.6719 72.5568 16.4063 76.296C16.8433 78.5307 17.0842 80.7993 17.1263 83.076C17.1263 83.076 15.5159 78.1704 14.4359 78.036C13.3559 77.9016 13.3583 79.476 14.2823 80.8584C15.2063 82.2408 16.9895 84.6984 17.2823 85.9752C17.2823 85.9752 15.5159 82.284 13.9223 83.4168C12.3287 84.5496 15.3047 86.7768 16.6295 87.5832C17.9543 88.3896 18.8735 93.4392 18.8735 93.4392L19.5551 93.2352Z" fill="white"/>
<path d="M18.4799 94.4472C18.4799 94.4472 19.7999 91.4688 18.2159 88.5768C16.6319 85.6848 16.1759 85.0032 17.1551 84.3912C18.1343 83.7792 18.6239 86.7024 18.6239 86.7024C18.6239 86.7024 19.4327 84.6744 18.7199 82.5744C18.0071 80.4744 17.5343 77.0544 18.4799 76.6632C19.4255 76.272 18.7199 80.9472 19.5455 82.5216C19.9468 81.4017 20.2001 80.2343 20.2991 79.0488C20.3927 77.352 20.1839 74.6496 20.9159 73.944C21.6479 73.2384 22.1303 73.704 21.4463 77.4624C21.0351 79.7026 20.8206 81.9745 20.8055 84.252C20.8055 84.252 22.3559 79.3248 23.4455 79.164C24.5351 79.0032 24.5399 80.604 23.6327 81.9864C22.7255 83.3688 20.9735 85.872 20.6951 87.1464C20.6951 87.1464 22.4159 83.4288 24.0191 84.5352C25.6223 85.6416 22.6775 87.9168 21.3623 88.7424C20.0471 89.568 19.1879 94.632 19.1879 94.632L18.4799 94.4472Z" fill="#407BFF"/>
<path opacity="0.7" d="M18.4799 94.4472C18.4799 94.4472 19.7999 91.4688 18.2159 88.5768C16.6319 85.6848 16.1759 85.0032 17.1551 84.3912C18.1343 83.7792 18.6239 86.7024 18.6239 86.7024C18.6239 86.7024 19.4327 84.6744 18.7199 82.5744C18.0071 80.4744 17.5343 77.0544 18.4799 76.6632C19.4255 76.272 18.7199 80.9472 19.5455 82.5216C19.9468 81.4017 20.2001 80.2343 20.2991 79.0488C20.3927 77.352 20.1839 74.6496 20.9159 73.944C21.6479 73.2384 22.1303 73.704 21.4463 77.4624C21.0351 79.7026 20.8206 81.9745 20.8055 84.252C20.8055 84.252 22.3559 79.3248 23.4455 79.164C24.5351 79.0032 24.5399 80.604 23.6327 81.9864C22.7255 83.3688 20.9735 85.872 20.6951 87.1464C20.6951 87.1464 22.4159 83.4288 24.0191 84.5352C25.6223 85.6416 22.6775 87.9168 21.3623 88.7424C20.0471 89.568 19.1879 94.632 19.1879 94.632L18.4799 94.4472Z" fill="white"/>
<path d="M24.5736 92.3232H13.668L14.5512 100.128H23.6928L24.5736 92.3232Z" fill="#407BFF"/>
<path d="M62.2824 57.5088H46.764V45.9696H56.5224L57.408 50.7576L62.2824 52.7352V57.5088Z" fill="#263238"/>
<path opacity="0.1" d="M62.2824 57.5088H46.764V45.9696H56.5224L57.408 50.7576L62.2824 52.7352V57.5088Z" fill="white"/>
<path opacity="0.1" d="M55.0825 57.5088H46.2841V45.9696H49.3225L50.2081 50.7576L55.0825 52.7352V57.5088Z" fill="white"/>
<path opacity="0.2" d="M56.2248 48.1704L55.9632 46.752H50.3568L50.6184 48.1704H56.2248Z" fill="black"/>
<path opacity="0.2" d="M50.736 48.804L50.9232 49.8168H56.5296L56.3424 48.804H50.736Z" fill="black"/>
<path opacity="0.3" d="M50.208 50.7576H57.408L62.2824 52.7352H55.0824L50.208 50.7576Z" fill="white"/>
<path d="M73.8936 37.3728C75.4104 38.1456 74.976 41.8656 71.0976 48.8112L68.4408 46.6512C69.0724 44.4924 69.8882 42.3919 70.8792 40.3728C72.4512 37.2384 73.8936 37.3728 73.8936 37.3728Z" fill="#407BFF"/>
<path opacity="0.4" d="M73.8936 37.3728C75.4104 38.1456 74.976 41.8656 71.0976 48.8112L68.4408 46.6512C69.0724 44.4924 69.8882 42.3919 70.8792 40.3728C72.4512 37.2384 73.8936 37.3728 73.8936 37.3728Z" fill="white"/>
<path d="M86.9208 54.0912H76.6008C75.6192 59.4552 72.5448 78.432 74.7504 95.34L78.24 94.9056C78.24 94.9056 77.916 72.4584 81.0048 64.1616C81.36 68.6016 81.78 73.3272 82.1472 75.8424C83.04 82.0296 84.96 95.556 84.96 95.556H88.5192C88.5192 95.556 87.7992 82.6104 87.4536 76.5264C87.0936 69.924 86.9352 55.44 86.9208 54.0912Z" fill="#263238"/>
<path d="M73.1545 37.4256C74.2225 37.1856 79.8553 35.9232 84.4009 36.1008C84.4009 36.1008 85.8625 51.0792 87.2329 57.168L75.3457 59.2512C75.3457 59.2512 72.6769 44.3472 72.9673 37.6512C72.9692 37.5982 72.9886 37.5473 73.0224 37.5065C73.0563 37.4657 73.1027 37.4372 73.1545 37.4256Z" fill="#407BFF"/>
<path opacity="0.6" d="M73.1545 37.4256C74.2225 37.1856 79.8553 35.9232 84.4009 36.1008C84.4009 36.1008 85.8625 51.0792 87.2329 57.168L75.3457 59.2512C75.3457 59.2512 72.6769 44.3472 72.9673 37.6512C72.9692 37.5982 72.9886 37.5473 73.0224 37.5065C73.0563 37.4657 73.1027 37.4372 73.1545 37.4256Z" fill="white"/>
<path d="M83.34 35.8992C83.34 35.8992 81.9792 41.6208 85.6992 46.4808L86.6184 52.584L87.6864 57.6384L81.7728 59.1984L79.6536 54.4536L79.44 59.6928L74.7336 60.3792L74.2224 54.3792C74.2224 54.3792 73.4088 49.6416 73.2 47.04C73.2 47.04 72.4944 41.0112 73.5936 37.1664L75.1416 36.8328C75.1416 36.8328 75.228 40.5072 77.58 43.4544C77.58 43.4544 79.812 37.572 81.8376 35.9064L83.34 35.8992Z" fill="#407BFF"/>
<path opacity="0.2" d="M83.34 35.8992C83.34 35.8992 81.9792 41.6208 85.6992 46.4808L86.6184 52.584L87.6864 57.6384L81.7728 59.1984L79.6536 54.4536L79.44 59.6928L74.7336 60.3792L74.2224 54.3792C74.2224 54.3792 73.4088 49.6416 73.2 47.04C73.2 47.04 72.4944 41.0112 73.5936 37.1664L75.1416 36.8328C75.1416 36.8328 75.228 40.5072 77.58 43.4544C77.58 43.4544 79.812 37.572 81.8376 35.9064L83.34 35.8992Z" fill="black"/>
<path d="M68.9472 45.5328C68.9472 45.5328 68.2416 47.4648 67.7016 47.5272C67.1616 47.5896 63.6504 41.7 63.6504 41.7C63.6504 41.7 63.2472 40.5312 62.5824 40.2144C61.9176 39.8976 59.9424 38.7744 59.4336 39.0288C58.9248 39.2832 59.1936 41.2272 59.1936 41.6688C59.1936 42.0576 60.8736 42.6288 61.3776 42.7248C61.7039 42.7921 62.0427 42.7621 62.352 42.6384C62.352 42.6384 65.1672 49.5696 66.9936 50.784C68.82 51.9984 71.5704 47.868 71.5704 47.868L68.9472 45.5328Z" fill="#EBB376"/>
<path d="M67.9849 46.5168L68.4841 46.116L71.5201 48.684L71.0329 49.5552L67.9849 46.5168Z" fill="#407BFF"/>
<path opacity="0.3" d="M67.9849 46.5168L68.4841 46.116L71.5201 48.684L71.0329 49.5552L67.9849 46.5168Z" fill="white"/>
<path d="M77.8609 98.2848L75.8545 98.496L75.4777 94.1664L77.4841 93.9528L77.8609 98.2848Z" fill="#EBB376"/>
<path d="M87.8832 98.1384H85.9368L85.776 93.6312H87.7224L87.8832 98.1384Z" fill="#EBB376"/>
<path d="M85.6656 97.92H88.0296C88.0686 97.9205 88.1063 97.934 88.1367 97.9584C88.1671 97.9827 88.1885 98.0165 88.1976 98.0544L88.5792 99.7872C88.5873 99.8241 88.588 99.8622 88.5813 99.8994C88.5745 99.9365 88.5605 99.972 88.5399 100.004C88.5194 100.035 88.4928 100.063 88.4616 100.084C88.4305 100.105 88.3954 100.12 88.3584 100.128C88.3377 100.13 88.3168 100.13 88.296 100.128C87.5304 100.116 86.9736 100.07 86.0136 100.07C85.4208 100.07 83.6376 100.13 82.8192 100.13C82.0008 100.13 81.8976 99.324 82.2312 99.2496C83.7312 98.9232 84.8592 98.4696 85.3392 98.0496C85.4277 97.9667 85.5444 97.9204 85.6656 97.92Z" fill="#263238"/>
<path d="M85.0224 98.256C84.8906 98.2655 84.7594 98.23 84.6504 98.1552C84.6153 98.1266 84.5879 98.0896 84.5707 98.0477C84.5535 98.0058 84.5471 97.9602 84.552 97.9152C84.5517 97.8887 84.559 97.8626 84.5731 97.84C84.5871 97.8175 84.6073 97.7994 84.6312 97.788C84.8472 97.6752 85.476 98.0616 85.5456 98.1072C85.5534 98.1112 85.5596 98.1175 85.5635 98.1253C85.5674 98.133 85.5687 98.1418 85.5672 98.1504C85.566 98.1596 85.5622 98.1683 85.5562 98.1756C85.5503 98.1828 85.5425 98.1882 85.5336 98.1912C85.3658 98.2295 85.1946 98.2512 85.0224 98.256ZM84.7344 97.8504C84.7135 97.85 84.6929 97.8549 84.6744 97.8648C84.6624 97.8648 84.6456 97.8816 84.6432 97.9176C84.6398 97.9482 84.6437 97.9791 84.6545 98.0079C84.6654 98.0367 84.6829 98.0625 84.7056 98.0832C84.9237 98.1835 85.1719 98.1963 85.3992 98.1192C85.1965 97.9886 84.971 97.8975 84.7344 97.8504Z" fill="#407BFF"/>
<path d="M85.5217 98.1864H85.4977C85.2985 98.076 84.9097 97.6488 84.9481 97.4424C84.9553 97.4083 84.974 97.3778 85.0011 97.3559C85.0282 97.334 85.0621 97.3222 85.0969 97.3224C85.1319 97.3178 85.1675 97.3206 85.2013 97.3305C85.2352 97.3404 85.2667 97.3573 85.2937 97.38C85.5193 97.5648 85.5649 98.124 85.5673 98.1504C85.5676 98.1588 85.5658 98.1672 85.562 98.1748C85.5582 98.1823 85.5526 98.1888 85.5457 98.1936C85.5371 98.1938 85.5287 98.1913 85.5217 98.1864ZM85.1305 97.3968H85.1065C85.0489 97.3968 85.0441 97.4304 85.0393 97.4424C85.0153 97.5696 85.2625 97.8936 85.4641 98.0448C85.4473 97.8221 85.3637 97.6096 85.2241 97.4352C85.1978 97.4127 85.165 97.3992 85.1305 97.3968Z" fill="#407BFF"/>
<path d="M75.6408 97.8504H78C78.0385 97.8514 78.0756 97.8652 78.1056 97.8895C78.1355 97.9138 78.1566 97.9473 78.1656 97.9848L78.5496 99.7176C78.5653 99.792 78.5508 99.8697 78.5095 99.9335C78.4681 99.9974 78.4031 100.042 78.3288 100.058H78.2664C77.5008 100.044 76.944 99.9984 75.984 99.9984C75.3912 99.9984 73.6056 100.061 72.7896 100.061C71.9736 100.061 71.8656 99.252 72.2016 99.1776C73.7016 98.8512 74.8296 98.3976 75.3096 97.9776C75.3997 97.8944 75.5182 97.8489 75.6408 97.8504Z" fill="#263238"/>
<path d="M74.9976 98.1936C74.8653 98.2036 74.7335 98.169 74.6232 98.0952C74.5893 98.0657 74.5629 98.0285 74.5463 97.9868C74.5296 97.9451 74.523 97.9 74.5272 97.8552C74.5266 97.8286 74.5338 97.8024 74.5479 97.7798C74.5619 97.7572 74.5823 97.7392 74.6064 97.728C74.8224 97.6152 75.4512 98.0016 75.5208 98.0472C75.5283 98.0514 75.5344 98.0578 75.5382 98.0655C75.5421 98.0732 75.5435 98.0819 75.5424 98.0904C75.5413 98.1 75.5372 98.1091 75.5308 98.1164C75.5244 98.1237 75.5159 98.1288 75.5064 98.1312C75.3397 98.1712 75.169 98.1921 74.9976 98.1936ZM74.7072 97.7904C74.6873 97.7883 74.6671 97.7925 74.6496 97.8024C74.6352 97.8024 74.6208 97.8192 74.6184 97.8576C74.6154 97.8881 74.6194 97.919 74.6302 97.9477C74.6411 97.9764 74.6584 98.0023 74.6808 98.0232C74.8997 98.1206 75.1471 98.1325 75.3744 98.0568C75.1708 97.9268 74.9444 97.8364 74.7072 97.7904Z" fill="#407BFF"/>
<path d="M75.4944 98.124H75.4728C75.2712 98.016 74.8848 97.5864 74.9232 97.38C74.9304 97.3459 74.9491 97.3154 74.9762 97.2935C75.0033 97.2716 75.0372 97.2598 75.072 97.26C75.1068 97.2552 75.1423 97.258 75.1759 97.2684C75.2095 97.2787 75.2404 97.2964 75.2664 97.32C75.492 97.5024 75.54 98.0616 75.5424 98.088C75.5423 98.0964 75.5403 98.1046 75.5366 98.1121C75.5328 98.1196 75.5274 98.1261 75.5208 98.1312C75.5115 98.1314 75.5023 98.1289 75.4944 98.124ZM75.1032 97.3344H75.0816C75.0216 97.3344 75.0168 97.368 75.0144 97.38C74.9904 97.5072 75.2376 97.8312 75.4392 97.9824C75.4224 97.7597 75.3388 97.5472 75.1992 97.3728C75.172 97.3502 75.1384 97.3368 75.1032 97.3344Z" fill="#407BFF"/>
<path opacity="0.2" d="M77.4841 93.9528L75.4777 94.1664L75.6721 96.4008L77.6809 96.1872L77.4841 93.9528Z" fill="black"/>
<path opacity="0.2" d="M87.7224 93.6336H85.776L85.86 95.9568H87.8088L87.7224 93.6336Z" fill="black"/>
<path d="M74.3425 96.1536L78.6697 95.5104L78.5377 94.3104L74.0353 94.9032L74.3425 96.1536Z" fill="#407BFF"/>
<path opacity="0.6" d="M74.3425 96.1536L78.6697 95.5104L78.5377 94.3104L74.0353 94.9032L74.3425 96.1536Z" fill="white"/>
<path d="M84.5377 95.5848H88.7353V94.3296L84.3793 94.248L84.5377 95.5848Z" fill="#407BFF"/>
<path opacity="0.6" d="M84.5377 95.5848H88.7353V94.3296L84.3793 94.248L84.5377 95.5848Z" fill="white"/>
<path opacity="0.2" d="M81 64.1616C80.4917 65.6196 80.1063 67.1176 79.848 68.64C79.5576 64.6872 80.7144 60.4968 80.7144 60.4968L81 64.1616Z" fill="black"/>
<path d="M80.6088 36.2256C79.86 37.2624 77.52 37.4256 77.52 37.4256C77.52 37.4256 76.02 37.3368 76.224 36.8304C77.0304 36.516 77.352 36.0408 77.424 35.5056C77.4502 35.177 77.4102 34.8465 77.3064 34.5336C77.2557 34.3574 77.1948 34.1843 77.124 34.0152L79.4928 31.3416C79.4064 32.8008 79.4904 35.4216 80.6088 36.2256Z" fill="#EBB376"/>
<path opacity="0.2" d="M79.1137 32.808C79.3537 34.5168 78.0721 35.2752 77.4145 35.5128C77.4407 35.1842 77.4007 34.8537 77.2969 34.5408L79.1137 32.808Z" fill="black"/>
<path d="M74.3568 27.3864C74.3568 27.3864 73.7712 30.0264 75.1224 31.1616C76.4736 32.2968 76.8024 27.3048 76.8024 27.3048L74.3568 27.3864Z" fill="#263238"/>
<path d="M79.1016 33.5664C78.774 33.987 78.3174 34.2884 77.8019 34.4246C77.2865 34.5607 76.7406 34.524 76.248 34.32C75.6071 34.068 75.0862 33.5814 74.7912 32.9592C74.7479 32.8729 74.7102 32.784 74.6784 32.6928C74.0904 31.0128 74.0616 28.1328 75.8616 27.1728C76.2584 26.9597 76.7031 26.8517 77.1535 26.859C77.6038 26.8663 78.0448 26.9887 78.4345 27.2146C78.8242 27.4405 79.1496 27.7623 79.3798 28.1494C79.61 28.5366 79.7373 28.9762 79.7496 29.4264C79.8336 31.3584 79.9728 32.4888 79.1016 33.5664Z" fill="#EBB376"/>
<path d="M76.8936 30.2664C76.92 30.42 76.8408 30.5568 76.7376 30.5688C76.6344 30.5808 76.5408 30.4584 76.524 30.3024C76.5072 30.1464 76.5792 30.012 76.68 30.0024C76.7808 29.9928 76.8768 30.108 76.8936 30.2664Z" fill="#263238"/>
<path d="M75.12 30.4464C75.1464 30.6 75.0648 30.7368 74.9616 30.7488C74.8584 30.7608 74.7648 30.6384 74.748 30.4848C74.7312 30.3312 74.8032 30.192 74.904 30.1824C75.0048 30.1728 75.12 30.3 75.12 30.4464Z" fill="#263238"/>
<path d="M75.6985 30.4656C75.5598 30.9621 75.3548 31.4376 75.0889 31.8792C75.2038 31.9448 75.3317 31.9843 75.4635 31.9951C75.5954 32.0059 75.728 31.9876 75.8521 31.9416L75.6985 30.4656Z" fill="#D58745"/>
<path d="M77.3832 29.64C77.3666 29.6436 77.3494 29.6431 77.3331 29.6385C77.3167 29.6339 77.3018 29.6253 77.2896 29.6136C77.2126 29.5283 77.1167 29.4621 77.0096 29.4204C76.9025 29.3788 76.7872 29.3627 76.6728 29.3736C76.6504 29.374 76.6286 29.3664 76.6114 29.3521C76.5942 29.3378 76.5826 29.3178 76.5789 29.2958C76.5751 29.2737 76.5793 29.2511 76.5908 29.2319C76.6023 29.2127 76.6203 29.1982 76.6416 29.1912C76.7866 29.1759 76.9332 29.1954 77.0693 29.2479C77.2053 29.3005 77.3269 29.3847 77.424 29.4936C77.4325 29.5021 77.4393 29.5122 77.444 29.5233C77.4486 29.5344 77.451 29.5463 77.451 29.5584C77.451 29.5704 77.4486 29.5824 77.444 29.5935C77.4393 29.6046 77.4325 29.6147 77.424 29.6232C77.4115 29.6312 77.3977 29.6369 77.3832 29.64Z" fill="#263238"/>
<path d="M74.3088 29.916C74.2909 29.9219 74.2715 29.9219 74.2536 29.916C74.2422 29.912 74.2317 29.9057 74.2228 29.8976C74.2138 29.8895 74.2065 29.8797 74.2014 29.8687C74.1963 29.8578 74.1933 29.8459 74.1928 29.8339C74.1923 29.8218 74.1942 29.8097 74.1984 29.7984C74.2456 29.66 74.3254 29.535 74.4311 29.4339C74.5368 29.3328 74.6652 29.2586 74.8056 29.2176C74.8173 29.2147 74.8294 29.2142 74.8412 29.216C74.8531 29.2179 74.8645 29.222 74.8748 29.2283C74.885 29.2345 74.8939 29.2427 74.901 29.2524C74.9081 29.2621 74.9132 29.2731 74.916 29.2848C74.9211 29.3086 74.9166 29.3335 74.9036 29.3541C74.8906 29.3747 74.8701 29.3895 74.8464 29.3952C74.7339 29.431 74.6316 29.4933 74.548 29.5768C74.4645 29.6604 74.4022 29.7627 74.3664 29.8752C74.3527 29.8953 74.3323 29.9098 74.3088 29.916Z" fill="#263238"/>
<path d="M78.0985 27.1848L78.0409 28.0392C78.1879 28.1002 78.3066 28.2143 78.3733 28.3589C78.44 28.5034 78.4498 28.6677 78.4009 28.8192C78.1609 29.5392 78.6409 30.6312 79.2025 31.044C79.2025 31.044 79.2025 30.732 79.4665 30.804C79.7305 30.876 79.7473 32.484 79.2793 33.2736C79.2793 33.2736 80.0113 32.5368 80.3545 30.8232C80.6737 29.2392 80.6521 27.9432 80.2969 27.3456L78.0985 27.1848Z" fill="#263238"/>
<path d="M80.748 30.9192C80.6641 31.1458 80.536 31.3535 80.3712 31.5302C80.2064 31.7069 80.0082 31.8492 79.788 31.9488C79.2024 32.2152 78.8112 31.7088 78.8928 31.1088C78.9672 30.5736 79.3584 29.772 79.9872 29.7648C80.616 29.7576 80.9472 30.3576 80.748 30.9192Z" fill="#EBB376"/>
<path d="M78.0408 28.0392C77.3818 27.9878 76.7189 28.0528 76.0824 28.2312C75.5304 28.4085 74.9406 28.4325 74.376 28.3008C74.376 28.3008 73.5216 26.5728 74.652 25.5264C75.7824 24.48 77.6736 24.888 78.2856 25.2432C78.8976 25.5984 77.6544 25.5384 77.6544 25.5384C77.6544 25.5384 79.656 25.9104 80.5224 26.6712C81.3888 27.432 81.18 28.6848 81.0024 28.896C80.8248 29.1072 80.6664 28.6416 80.6664 28.6416C80.2955 28.8286 79.8808 28.9116 79.4664 28.8816C78.72 28.872 79.032 28.212 78.0408 28.0392Z" fill="#263238"/>
<path d="M75.9673 32.5704C76.0988 32.7831 76.2143 33.0053 76.3129 33.2352C76.3559 33.2265 76.3984 33.2153 76.4401 33.2016C77.0209 33.0528 77.2393 32.7912 77.3065 32.5464C77.3353 32.4265 77.3353 32.3015 77.3065 32.1816C77.293 32.113 77.2695 32.0467 77.2369 31.9848C76.9202 32.2359 76.5537 32.4167 76.1617 32.5152L75.9673 32.5704Z" fill="#263238"/>
<path d="M76.1641 32.5152L76.2721 32.7096C76.8169 32.5656 77.1817 32.3904 77.3089 32.1816C77.2953 32.113 77.2719 32.0467 77.2393 31.9848C76.9225 32.2359 76.556 32.4167 76.1641 32.5152Z" fill="white"/>
<path d="M76.4401 33.2016C77.0209 33.0528 77.2393 32.7912 77.3065 32.5464C77.0873 32.6076 76.8808 32.7076 76.6969 32.8416C76.5756 32.9317 76.4858 33.0576 76.4401 33.2016Z" fill="#DE5753"/>
<path d="M80.0136 35.4648C79.4166 36.2291 78.6565 36.8506 77.7888 37.284C77.5113 36.9219 77.3238 36.4991 77.2416 36.0504C76.7738 36.2724 76.3431 36.5655 75.9648 36.9192C76.0241 37.4805 76.2185 38.019 76.5312 38.4888L77.748 37.6176L79.224 38.6952C79.224 38.6952 81.1632 37.4424 81.5976 36.156L80.0136 35.4648Z" fill="#407BFF"/>
<path opacity="0.4" d="M80.0136 35.4648C79.4166 36.2291 78.6565 36.8506 77.7888 37.284C77.5113 36.9219 77.3238 36.4991 77.2416 36.0504C76.7738 36.2724 76.3431 36.5655 75.9648 36.9192C76.0241 37.4805 76.2185 38.019 76.5312 38.4888L77.748 37.6176L79.224 38.6952C79.224 38.6952 81.1632 37.4424 81.5976 36.156L80.0136 35.4648Z" fill="white"/>
<path d="M64.6944 45.2232C63.0576 45.1032 63.2712 46.4568 63.564 47.4264L64.836 50.3064L67.4232 50.2128C67.4232 50.2128 66.3312 45.3408 64.6944 45.2232ZM64.5768 48.5976C64.1976 47.9736 63.1032 46.0296 64.2672 45.696C65.4312 45.3624 66.8064 47.952 66.4752 48.948C66.144 49.944 65.328 49.8336 64.5768 48.5976Z" fill="#407BFF"/>
<path opacity="0.5" d="M64.6944 45.2232C63.0576 45.1032 63.2712 46.4568 63.564 47.4264L64.836 50.3064L67.4232 50.2128C67.4232 50.2128 66.3312 45.3408 64.6944 45.2232ZM64.5768 48.5976C64.1976 47.9736 63.1032 46.0296 64.2672 45.696C65.4312 45.3624 66.8064 47.952 66.4752 48.948C66.144 49.944 65.328 49.8336 64.5768 48.5976Z" fill="white"/>
<path d="M64.2192 50.136L65.0256 47.148L68.9424 48.1392L67.9416 53.0784L64.2192 50.136Z" fill="#407BFF"/>
<path d="M68.5872 52.5096L67.6368 46.5312L70.0104 45.4608L71.88 46.5312L72.0768 52.7952L68.5872 52.5096Z" fill="#407BFF"/>
<path opacity="0.2" d="M68.5872 52.5096L67.6368 46.5312L70.0104 45.4608L71.88 46.5312L72.0768 52.7952L68.5872 52.5096Z" fill="black"/>
<path d="M70.296 50.7288C70.296 50.7288 71.6016 42.5688 72.552 42.3024C73.5024 42.036 74.3784 43.3008 74.3784 43.3008C74.3784 43.3008 73.5696 48.6168 72.9768 50.5008C72.384 52.3848 70.296 50.7288 70.296 50.7288Z" fill="#407BFF"/>
<path opacity="0.8" d="M70.296 50.7288C70.296 50.7288 71.6016 42.5688 72.552 42.3024C73.5024 42.036 74.3784 43.3008 74.3784 43.3008C74.3784 43.3008 73.5696 48.6168 72.9768 50.5008C72.384 52.3848 70.296 50.7288 70.296 50.7288Z" fill="white"/>
<path d="M73.5 51.0072C73.5 49.8072 75.084 46.4472 73.1136 46.116C71.1432 45.7848 69.576 49.3608 67.3536 49.3536C65.1312 49.3464 63.5568 47.4336 63.5568 47.4336L63.8976 48.1416C63.8976 48.1416 59.6136 56.5248 61.656 57.3576C63.5568 58.1304 74.2248 57.3576 74.2248 57.3576C75.7848 56.2872 73.5 52.2096 73.5 51.0072ZM73.26 49.7664C73.02 49.8264 71.8848 48.5976 71.8848 48.5976C71.7888 46.3704 73.0008 46.2192 73.5936 46.86C74.1864 47.5008 73.5 49.7088 73.2624 49.7664H73.26Z" fill="#407BFF"/>
<path opacity="0.7" d="M73.5 51.0072C73.5 49.8072 75.084 46.4472 73.1136 46.116C71.1432 45.7848 69.576 49.3608 67.3536 49.3536C65.1312 49.3464 63.5568 47.4336 63.5568 47.4336L63.8976 48.1416C63.8976 48.1416 59.6136 56.5248 61.656 57.3576C63.5568 58.1304 74.2248 57.3576 74.2248 57.3576C75.7848 56.2872 73.5 52.2096 73.5 51.0072ZM73.26 49.7664C73.02 49.8264 71.8848 48.5976 71.8848 48.5976C71.7888 46.3704 73.0008 46.2192 73.5936 46.86C74.1864 47.5008 73.5 49.7088 73.2624 49.7664H73.26Z" fill="white"/>
<path opacity="0.6" d="M81.7088 43.8895L79.3035 44.1478L79.4803 45.7943L81.8857 45.536L81.7088 43.8895Z" fill="white"/>
<path d="M80.088 43.2528L80.328 44.0472C80.3426 44.0972 80.3752 44.1401 80.4195 44.1676C80.4638 44.1951 80.5167 44.2052 80.568 44.196C80.6136 44.1888 80.6556 44.1672 80.688 44.1344C80.7204 44.1016 80.7414 44.0592 80.748 44.0136L80.8752 43.092L80.088 43.2528Z" fill="#407BFF"/>
<path opacity="0.4" d="M80.088 43.2528L80.328 44.0472C80.3426 44.0972 80.3752 44.1401 80.4195 44.1676C80.4638 44.1951 80.5167 44.2052 80.568 44.196C80.6136 44.1888 80.6556 44.1672 80.688 44.1344C80.7204 44.1016 80.7414 44.0592 80.748 44.0136L80.8752 43.092L80.088 43.2528Z" fill="black"/>
<path d="M81.8568 45.5184C81.8568 45.5184 80.964 48.1992 80.58 48.7824C80.196 49.3656 70.296 51.9264 70.296 51.9264C70.296 51.9264 69.4656 51.504 68.9424 51.5496C68.4192 51.5952 66.3792 52.0704 66.3312 52.4496C66.2832 52.8288 67.3776 54.5376 67.6368 54.6792C67.896 54.8208 70.5168 54.4272 70.7952 53.7456C70.7952 53.7456 80.9064 51.9312 81.8568 51.5496C82.8072 51.168 84.8448 46.6584 84.8448 46.6584L81.8568 45.5184Z" fill="#EBB376"/>
<path d="M84.4008 36.1008C85.932 36.204 87.2688 39.5016 87.0072 42.1608C86.7456 44.82 84.3 49.3608 84.3 49.3608L80.8824 47.6808C80.8824 47.6808 81.7368 44.64 82.7112 41.76C83.6856 38.88 83.244 36.0216 84.4008 36.1008Z" fill="#407BFF"/>
<path opacity="0.4" d="M84.4008 36.1008C85.932 36.204 87.2688 39.5016 87.0072 42.1608C86.7456 44.82 84.3 49.3608 84.3 49.3608L80.8824 47.6808C80.8824 47.6808 81.7368 44.64 82.7112 41.76C83.6856 38.88 83.244 36.0216 84.4008 36.1008Z" fill="white"/>
<path d="M80.4745 47.9808L80.8537 47.4264L84.8449 48.7752L84.6385 49.7664L80.4745 47.9808Z" fill="#407BFF"/>
<path opacity="0.3" d="M80.4745 47.9808L80.8537 47.4264L84.8449 48.7752L84.6385 49.7664L80.4745 47.9808Z" fill="white"/>
<path d="M48.96 53.2968H55.9824C56.0963 53.2968 56.2056 53.3421 56.2862 53.4226C56.3667 53.5032 56.412 53.6125 56.412 53.7264V57.6768H48.5304V53.724C48.531 53.6105 48.5766 53.5018 48.6571 53.4218C48.7376 53.3417 48.8465 53.2968 48.96 53.2968Z" fill="#407BFF"/>
<path opacity="0.3" d="M56.4 53.724V57.6744H48.5304V53.724C48.5304 53.6107 48.5754 53.502 48.6555 53.4219C48.7356 53.3418 48.8443 53.2968 48.9576 53.2968H55.9824C56.094 53.2993 56.2002 53.3454 56.2783 53.4253C56.3563 53.5051 56.4 53.6123 56.4 53.724Z" fill="white"/>
<path opacity="0.4" d="M54.48 53.724V57.6744H48.5304V53.724C48.5304 53.6107 48.5754 53.502 48.6555 53.4219C48.7356 53.3418 48.8443 53.2968 48.9576 53.2968H54.0624C54.174 53.2993 54.2802 53.3454 54.3583 53.4253C54.4363 53.5051 54.48 53.6123 54.48 53.724Z" fill="white"/>
<path d="M98.4672 58.8504H43.5264V100.128H98.4672V58.8504Z" fill="#407BFF"/>
<path opacity="0.3" d="M98.4672 58.8504H43.5264V100.128H98.4672V58.8504Z" fill="white"/>
<path opacity="0.4" d="M84.2112 58.8504H43.5264V100.128H84.2112V58.8504Z" fill="white"/>
<path d="M98.8872 57.3312H43.3224C43.1156 57.3312 42.948 57.4988 42.948 57.7056V59.3448C42.948 59.5516 43.1156 59.7192 43.3224 59.7192H98.8872C99.094 59.7192 99.2616 59.5516 99.2616 59.3448V57.7056C99.2616 57.4988 99.094 57.3312 98.8872 57.3312Z" fill="#407BFF"/>
<path opacity="0.2" d="M84.4872 57.3312H43.3224C43.1156 57.3312 42.948 57.4988 42.948 57.7056V59.3448C42.948 59.5516 43.1156 59.7192 43.3224 59.7192H84.4872C84.694 59.7192 84.8616 59.5516 84.8616 59.3448V57.7056C84.8616 57.4988 84.694 57.3312 84.4872 57.3312Z" fill="white"/>
<path d="M106.279 94.1784C106.329 94.0745 106.352 93.9604 106.348 93.8454C106.345 93.7305 106.313 93.6182 106.257 93.5178C106.201 93.4175 106.122 93.3321 106.026 93.2687C105.93 93.2053 105.82 93.1659 105.706 93.1536C105.807 92.8581 105.816 92.5386 105.73 92.2381C105.644 91.9377 105.468 91.6708 105.226 91.4736C105.168 91.4201 105.095 91.3871 105.017 91.38C104.933 91.3892 104.853 91.4235 104.789 91.4784L103.452 92.4384C103.344 92.5032 103.252 92.5929 103.186 92.7C102.912 93.2304 103.906 93.9 103.493 94.3464C103.378 94.4712 103.19 94.4976 103.044 94.5864C102.725 94.7856 102.686 95.2224 102.54 95.568C102.394 95.9136 101.873 96.18 101.676 95.8608C101.822 95.5296 101.378 95.2464 101.021 95.2032C100.663 95.16 100.286 95.1408 100.087 94.8048C99.576 95.2488 98.436 94.008 98.4624 93.5064C98.0424 93.5376 97.7568 93.9312 97.6656 94.3224C97.6068 94.7357 97.5923 95.1541 97.6224 95.5704C97.6104 96.384 97.3488 97.1784 97.3632 97.9896C97.3632 98.6208 97.6176 99.3216 98.196 99.576C98.4827 99.6786 98.7877 99.7195 99.0912 99.696L105.674 99.6552C105.833 99.6654 105.991 99.6391 106.138 99.5784C106.435 99.4224 106.498 99.0312 106.526 98.6976L106.879 94.4088L106.279 94.1784Z" fill="#407BFF"/>
<path opacity="0.3" d="M106.279 94.1784C106.329 94.0745 106.352 93.9604 106.348 93.8454C106.345 93.7305 106.313 93.6182 106.257 93.5178C106.201 93.4175 106.122 93.3321 106.026 93.2687C105.93 93.2053 105.82 93.1659 105.706 93.1536C105.807 92.8581 105.816 92.5386 105.73 92.2381C105.644 91.9377 105.468 91.6708 105.226 91.4736C105.168 91.4201 105.095 91.3871 105.017 91.38C104.933 91.3892 104.853 91.4235 104.789 91.4784L103.452 92.4384C103.344 92.5032 103.252 92.5929 103.186 92.7C102.912 93.2304 103.906 93.9 103.493 94.3464C103.378 94.4712 103.19 94.4976 103.044 94.5864C102.725 94.7856 102.686 95.2224 102.54 95.568C102.394 95.9136 101.873 96.18 101.676 95.8608C101.822 95.5296 101.378 95.2464 101.021 95.2032C100.663 95.16 100.286 95.1408 100.087 94.8048C99.576 95.2488 98.436 94.008 98.4624 93.5064C98.0424 93.5376 97.7568 93.9312 97.6656 94.3224C97.6068 94.7357 97.5923 95.1541 97.6224 95.5704C97.6104 96.384 97.3488 97.1784 97.3632 97.9896C97.3632 98.6208 97.6176 99.3216 98.196 99.576C98.4827 99.6786 98.7877 99.7195 99.0912 99.696L105.674 99.6552C105.833 99.6654 105.991 99.6391 106.138 99.5784C106.435 99.4224 106.498 99.0312 106.526 98.6976L106.879 94.4088L106.279 94.1784Z" fill="white"/>
<path d="M106.663 87.2208H96.4489L96.5329 88.2528L96.5929 88.9896L96.7489 90.9096L96.8377 92.0112L96.9553 93.4776L97.0057 94.1064L97.0225 94.2936L97.0825 95.0328L97.1641 96.0456L97.2145 96.6744L97.2673 97.3128L97.3273 98.052L97.3729 98.6112L97.4233 99.24L97.4449 99.5136H106.819L106.841 99.24L106.891 98.6136L106.937 98.0496L106.997 97.3104L107.05 96.6744L107.1 96.0456L107.182 95.0304L107.242 94.2936L107.256 94.1064L107.306 93.4776L107.426 92.0112L107.515 90.912L107.669 88.992L107.729 88.2552L107.813 87.2232L106.663 87.2208ZM107.278 87.8976L107.081 87.7008H107.294L107.278 87.8976ZM107.227 88.524L107.208 88.764L106.294 89.6784L105.245 88.6296L106.183 87.6912H106.404L107.227 88.524ZM106.963 91.7928L106.294 92.4624L105.245 91.4136L106.294 90.3672L107.014 91.0872L106.963 91.7928ZM97.2433 91.092L97.9633 90.372L99.0121 91.4184L97.9633 92.4672L97.2961 91.7976L97.2433 91.092ZM105.955 90.0264L104.906 91.0752L103.858 90.0264L104.906 88.9776L105.955 90.0264ZM104.306 87.7008H105.506L104.906 88.3008L104.306 87.7008ZM104.566 91.4136L103.519 92.4624L102.48 91.4136L103.529 90.3672L104.566 91.4136ZM101.083 92.8008L102.132 91.7544L103.178 92.8008L102.132 93.84L101.083 92.8008ZM101.791 94.188L100.742 95.2368L99.6961 94.1904L100.745 93.1416L101.791 94.188ZM103.519 93.1416L104.566 94.1904L103.519 95.2368L102.48 94.188L103.519 93.1416ZM102.132 91.0752L101.083 90.0264L102.132 88.9776L103.178 90.0264L102.132 91.0752ZM101.791 91.4136L100.745 92.4624L99.6961 91.4136L100.745 90.3672L101.791 91.4136ZM99.3601 91.0752L98.3137 90.0264L99.3601 88.9776L100.409 90.0264L99.3601 91.0752ZM99.3601 91.7544L100.409 92.8008L99.3601 93.84L98.3137 92.7912L99.3601 91.7544ZM100.409 95.5776L99.3601 96.624L98.3137 95.5776L99.3601 94.5288L100.409 95.5776ZM100.747 95.916L101.796 96.9648L100.75 98.0136L99.6961 96.96L100.747 95.916ZM101.088 95.5776L102.137 94.5288L103.183 95.5776L102.137 96.624L101.088 95.5776ZM103.524 95.916L104.57 96.9648L103.524 98.0136L102.48 96.96L103.524 95.916ZM104.911 97.3032L105.96 98.352L105.281 99.0312H104.542L103.862 98.352L104.911 97.3032ZM103.862 95.5776L104.911 94.5288L105.96 95.5776L104.911 96.624L103.862 95.5776ZM103.862 92.8008L104.911 91.7544L105.96 92.8008L104.906 93.84L103.862 92.8008ZM104.57 88.6392L103.524 89.688L102.48 88.6392L103.418 87.7008H103.639L104.57 88.6392ZM102.137 88.3008L101.537 87.7008H102.737L102.137 88.3008ZM101.796 88.6392L100.75 89.688L99.7009 88.6392L100.639 87.7008H100.86L101.796 88.6392ZM99.9601 87.7008L99.3601 88.3008L98.7625 87.7008H99.9601ZM98.0833 87.7008L99.0217 88.6392L97.9729 89.688L97.0609 88.7736L97.0417 88.5336L97.8625 87.7104L98.0833 87.7008ZM97.1857 87.7008L96.9913 87.8952L96.9745 87.7008H97.1857ZM97.1209 89.5128L97.6345 90.0264L97.2001 90.4632L97.1209 89.5128ZM97.4065 93.0288L97.3657 92.532L97.6345 92.8008L97.3945 93.0288H97.4065ZM97.4569 93.66L97.9729 93.1416L99.0217 94.1904L97.9729 95.2368L97.5505 94.8144L97.4569 93.66ZM97.6129 95.5992V95.5536L97.6369 95.5776L97.6153 95.5992H97.6129ZM97.7953 97.8336L97.6633 96.2256L97.9729 95.916L99.0217 96.9648L97.9729 98.0112L97.7953 97.8336ZM97.8913 99.0336L97.8721 98.7936L97.9729 98.6928L98.3137 99.0336H97.8913ZM98.3137 98.3544L99.3601 97.3056L100.409 98.3544L99.7297 99.0336H98.9905L98.3137 98.3544ZM100.409 99.0336L100.75 98.6928L101.09 99.0336H100.409ZM101.767 99.0336L101.088 98.3544L102.137 97.3056L103.183 98.3544L102.506 99.0336H101.767ZM103.183 99.0336L103.524 98.6928L103.865 99.0336H103.183ZM106.38 99.0336H105.958L106.298 98.6928L106.399 98.7936L106.38 99.0336ZM106.478 97.8336L106.298 98.0112L105.245 96.96L106.294 95.9112L106.603 96.2208L106.478 97.8336ZM106.663 95.5512V95.5992L106.642 95.5776L106.668 95.5512H106.663ZM106.723 94.8144L106.298 95.2368L105.25 94.1904L106.298 93.1416L106.817 93.66L106.723 94.8144ZM106.867 93.0312L106.627 92.7912L106.898 92.5224L106.867 93.0312ZM107.148 89.52L107.071 90.48L106.632 90.0408L107.148 89.5248V89.52Z" fill="#407BFF"/>
<g opacity="0.6">
<path d="M106.663 87.2208H96.4489L96.5329 88.2528L96.5929 88.9896L96.7489 90.9096L96.8377 92.0112L96.9553 93.4776L97.0057 94.1064L97.0225 94.2936L97.0825 95.0328L97.1641 96.0456L97.2145 96.6744L97.2673 97.3128L97.3273 98.052L97.3729 98.6112L97.4233 99.24L97.4449 99.5136H106.819L106.841 99.24L106.891 98.6136L106.937 98.0496L106.997 97.3104L107.05 96.6744L107.1 96.0456L107.182 95.0304L107.242 94.2936L107.256 94.1064L107.306 93.4776L107.426 92.0112L107.515 90.912L107.669 88.992L107.729 88.2552L107.813 87.2232L106.663 87.2208ZM107.278 87.8976L107.081 87.7008H107.294L107.278 87.8976ZM107.227 88.524L107.208 88.764L106.294 89.6784L105.245 88.6296L106.183 87.6912H106.404L107.227 88.524ZM106.963 91.7928L106.294 92.4624L105.245 91.4136L106.294 90.3672L107.014 91.0872L106.963 91.7928ZM97.2433 91.092L97.9633 90.372L99.0121 91.4184L97.9633 92.4672L97.2961 91.7976L97.2433 91.092ZM105.955 90.0264L104.906 91.0752L103.858 90.0264L104.906 88.9776L105.955 90.0264ZM104.306 87.7008H105.506L104.906 88.3008L104.306 87.7008ZM104.566 91.4136L103.519 92.4624L102.48 91.4136L103.529 90.3672L104.566 91.4136ZM101.083 92.8008L102.132 91.7544L103.178 92.8008L102.132 93.84L101.083 92.8008ZM101.791 94.188L100.742 95.2368L99.6961 94.1904L100.745 93.1416L101.791 94.188ZM103.519 93.1416L104.566 94.1904L103.519 95.2368L102.48 94.188L103.519 93.1416ZM102.132 91.0752L101.083 90.0264L102.132 88.9776L103.178 90.0264L102.132 91.0752ZM101.791 91.4136L100.745 92.4624L99.6961 91.4136L100.745 90.3672L101.791 91.4136ZM99.3601 91.0752L98.3137 90.0264L99.3601 88.9776L100.409 90.0264L99.3601 91.0752ZM99.3601 91.7544L100.409 92.8008L99.3601 93.84L98.3137 92.7912L99.3601 91.7544ZM100.409 95.5776L99.3601 96.624L98.3137 95.5776L99.3601 94.5288L100.409 95.5776ZM100.747 95.916L101.796 96.9648L100.75 98.0136L99.6961 96.96L100.747 95.916ZM101.088 95.5776L102.137 94.5288L103.183 95.5776L102.137 96.624L101.088 95.5776ZM103.524 95.916L104.57 96.9648L103.524 98.0136L102.48 96.96L103.524 95.916ZM104.911 97.3032L105.96 98.352L105.281 99.0312H104.542L103.862 98.352L104.911 97.3032ZM103.862 95.5776L104.911 94.5288L105.96 95.5776L104.911 96.624L103.862 95.5776ZM103.862 92.8008L104.911 91.7544L105.96 92.8008L104.906 93.84L103.862 92.8008ZM104.57 88.6392L103.524 89.688L102.48 88.6392L103.418 87.7008H103.639L104.57 88.6392ZM102.137 88.3008L101.537 87.7008H102.737L102.137 88.3008ZM101.796 88.6392L100.75 89.688L99.7009 88.6392L100.639 87.7008H100.86L101.796 88.6392ZM99.9601 87.7008L99.3601 88.3008L98.7625 87.7008H99.9601ZM98.0833 87.7008L99.0217 88.6392L97.9729 89.688L97.0609 88.7736L97.0417 88.5336L97.8625 87.7104L98.0833 87.7008ZM97.1857 87.7008L96.9913 87.8952L96.9745 87.7008H97.1857ZM97.1209 89.5128L97.6345 90.0264L97.2001 90.4632L97.1209 89.5128ZM97.4065 93.0288L97.3657 92.532L97.6345 92.8008L97.3945 93.0288H97.4065ZM97.4569 93.66L97.9729 93.1416L99.0217 94.1904L97.9729 95.2368L97.5505 94.8144L97.4569 93.66ZM97.6129 95.5992V95.5536L97.6369 95.5776L97.6153 95.5992H97.6129ZM97.7953 97.8336L97.6633 96.2256L97.9729 95.916L99.0217 96.9648L97.9729 98.0112L97.7953 97.8336ZM97.8913 99.0336L97.8721 98.7936L97.9729 98.6928L98.3137 99.0336H97.8913ZM98.3137 98.3544L99.3601 97.3056L100.409 98.3544L99.7297 99.0336H98.9905L98.3137 98.3544ZM100.409 99.0336L100.75 98.6928L101.09 99.0336H100.409ZM101.767 99.0336L101.088 98.3544L102.137 97.3056L103.183 98.3544L102.506 99.0336H101.767ZM103.183 99.0336L103.524 98.6928L103.865 99.0336H103.183ZM106.38 99.0336H105.958L106.298 98.6928L106.399 98.7936L106.38 99.0336ZM106.478 97.8336L106.298 98.0112L105.245 96.96L106.294 95.9112L106.603 96.2208L106.478 97.8336ZM106.663 95.5512V95.5992L106.642 95.5776L106.668 95.5512H106.663ZM106.723 94.8144L106.298 95.2368L105.25 94.1904L106.298 93.1416L106.817 93.66L106.723 94.8144ZM106.867 93.0312L106.627 92.7912L106.898 92.5224L106.867 93.0312ZM107.148 89.52L107.071 90.48L106.632 90.0408L107.148 89.5248V89.52Z" fill="white"/>
</g>
<path d="M96.1896 88.128H108.074C108.292 88.128 108.468 87.9518 108.468 87.7344V87.1848C108.468 86.9674 108.292 86.7912 108.074 86.7912H96.1896C95.9722 86.7912 95.796 86.9674 95.796 87.1848V87.7344C95.796 87.9518 95.9722 88.128 96.1896 88.128Z" fill="#407BFF"/>
<path d="M107.16 98.7936H97.1016C96.8842 98.7936 96.708 98.9698 96.708 99.1872V99.7368C96.708 99.9542 96.8842 100.13 97.1016 100.13H107.16C107.377 100.13 107.554 99.9542 107.554 99.7368V99.1872C107.554 98.9698 107.377 98.7936 107.16 98.7936Z" fill="#407BFF"/>
<path d="M42.6384 50.4312C43.4664 50.6904 43.5984 55.5024 43.5984 55.5024H43.1184C43.1184 55.5024 43.3584 50.4024 42.1224 50.5608L42.6384 50.4312Z" fill="#263238"/>
<path opacity="0.2" d="M42.6384 50.4312C43.4664 50.6904 43.5984 55.5024 43.5984 55.5024H43.1184C43.1184 55.5024 43.3584 50.4024 42.1224 50.5608L42.6384 50.4312Z" fill="black"/>
<path d="M43.6825 95.9568L42.1681 96.2232L41.5465 94.1592L40.9801 92.2656L42.7273 91.656L43.2337 93.9336L43.6825 95.9568Z" fill="#E4897B"/>
<path opacity="0.2" d="M43.2409 93.9792L41.5537 94.2024L40.9849 92.2872L42.7273 91.6656L43.2409 93.9792Z" fill="black"/>
<path d="M33.576 96.6552H32.0376L31.7856 94.488L31.5576 92.5128L33.3816 92.2104L33.4848 94.5624L33.576 96.6552Z" fill="#E4897B"/>
<path opacity="0.2" d="M33.4848 94.5816L31.7856 94.5072L31.5576 92.5224L33.3816 92.2152L33.4848 94.5816Z" fill="black"/>
<path d="M35.6592 99.6984C35.4144 99.502 35.1364 99.3508 34.8384 99.252C34.8384 99.252 33.9456 98.3664 33.516 95.7L32.3472 95.3952C32.1488 95.3478 31.9407 95.3622 31.7506 95.4364C31.5606 95.5106 31.3978 95.6411 31.284 95.8104C31.2516 95.8575 31.2265 95.9093 31.2096 95.964C31.1491 96.2498 31.1074 96.5392 31.0848 96.8304C30.9672 97.7328 31.068 99.7584 31.068 99.7584H31.2792L31.3632 97.92C31.3944 97.296 31.872 98.028 32.0088 98.7C32.1456 99.372 32.436 100.087 33.804 100.121C35.4 100.152 36.0624 100.08 35.6592 99.6984Z" fill="#263238"/>
<path d="M45.8593 99.5184C45.6144 99.322 45.3365 99.1708 45.0385 99.072C45.0385 99.072 44.1457 98.1864 43.7161 95.52L42.5473 95.2152C42.3489 95.1678 42.1407 95.1822 41.9507 95.2564C41.7607 95.3306 41.5979 95.4611 41.4841 95.6304C41.4517 95.6775 41.4266 95.7293 41.4097 95.784C41.3492 96.0698 41.3075 96.3592 41.2849 96.6504C41.1673 97.5528 41.2681 99.5784 41.2681 99.5784H41.4793L41.5633 97.74C41.5945 97.116 42.0721 97.848 42.2089 98.52C42.3457 99.192 42.6361 99.9072 44.0041 99.9408C45.6001 99.972 46.2625 99.9096 45.8593 99.5184Z" fill="#263238"/>
<path d="M43.3848 92.7792L40.896 93.216C38.3832 86.9592 36.5976 81.7368 35.3352 77.4024C34.656 75.0648 34.0896 72.9864 33.684 71.1408L33.7584 77.952V93.2952H31.3056C25.1592 64.0152 29.5152 57.3408 29.5152 57.3408L36.8712 56.1168C37.1609 57.4772 37.3661 58.8542 37.4856 60.24L37.8168 62.6784L40.6968 77.5296L43.3848 92.7792Z" fill="#407BFF"/>
<g opacity="0.4">
<path d="M43.3848 92.7792L40.896 93.216C38.3832 86.9592 36.5976 81.7368 35.3352 77.4024C34.656 75.0648 34.0896 72.9864 33.684 71.1408L33.7584 77.952V93.2952H31.3056C25.1592 64.0152 29.5152 57.3408 29.5152 57.3408L36.8712 56.1168C37.1609 57.4772 37.3661 58.8542 37.4856 60.24L37.8168 62.6784L40.6968 77.5296L43.3848 92.7792Z" fill="white"/>
</g>
<path d="M45.5785 48.888L48.0601 46.4352C48.0601 46.4352 48.1465 45.7776 48.3865 45.5952C48.6265 45.4128 50.3305 44.7936 50.5465 44.9304C50.7625 45.0672 51.0433 46.4448 50.7529 46.6968C50.4625 46.9488 48.9121 47.2704 48.7537 47.244L46.0681 50.4312L45.5785 48.888Z" fill="#EEC1BB"/>
<path d="M36.6888 44.4168C37.7592 44.9856 41.5584 50.2968 42.12 50.5608C42.6816 50.8248 46.9584 47.3544 46.9584 47.3544L47.6784 48.5856C47.6784 48.5856 44.16 53.5464 42.1848 53.3064C40.2096 53.0664 36.3984 48.8664 36.3984 48.8664L36.6888 44.4168Z" fill="#263238"/>
<path opacity="0.4" d="M36.6888 44.4168C37.7592 44.9856 41.5584 50.2968 42.12 50.5608C42.6816 50.8248 46.9584 47.3544 46.9584 47.3544L47.6784 48.5856C47.6784 48.5856 44.16 53.5464 42.1848 53.3064C40.2096 53.0664 36.3984 48.8664 36.3984 48.8664L36.6888 44.4168Z" fill="white"/>
<path d="M46.7233 47.4864L47.0185 47.2056L47.7985 48.5256L47.5201 49.0656L46.7233 47.4864Z" fill="#407BFF"/>
<path opacity="0.2" d="M37.9201 50.4168C37.0321 49.5696 36.3937 48.8664 36.3937 48.8664L36.4609 47.8104L36.7945 46.7856C37.2536 47.2602 37.5947 47.8362 37.7903 48.467C37.9858 49.0978 38.0303 49.7657 37.9201 50.4168Z" fill="black"/>
<path opacity="0.2" d="M35.3353 77.4024C34.6561 75.0648 34.1353 72.9864 33.7201 71.1408C33.7561 68.9559 33.9164 66.7747 34.2001 64.608C34.2001 64.608 35.2801 73.032 35.3353 77.4024Z" fill="black"/>
<path d="M37.0464 55.6632C37.3464 50.3832 37.2144 47.4744 37.0776 46.0224C36.9264 44.4744 36.6888 44.4168 36.6888 44.4168C36.6888 44.4168 35.0088 44.2536 33.552 44.2656C32.425 44.3037 31.3021 44.4224 30.192 44.6208C29.1354 44.7965 28.0928 45.0476 27.072 45.372C27.2416 45.852 27.3976 46.3128 27.54 46.7544C27.732 47.3256 27.9024 47.8584 28.056 48.3528C28.3464 49.2816 28.5696 50.0832 28.7496 50.8008C29.2074 52.608 29.4753 54.458 29.5488 56.3208C29.5488 56.3208 27.7008 61.1448 27.3408 64.6848L33.4608 65.3448L34.3008 61.8048L35.1408 65.4648L38.5608 64.2648L37.0464 55.6632Z" fill="#263238"/>
<path opacity="0.4" d="M37.0464 55.6632C37.3464 50.3832 37.2144 47.4744 37.0776 46.0224C36.9264 44.4744 36.6888 44.4168 36.6888 44.4168C36.6888 44.4168 35.0088 44.2536 33.552 44.2656C32.425 44.3037 31.3021 44.4224 30.192 44.6208C29.1354 44.7965 28.0928 45.0476 27.072 45.372C27.2416 45.852 27.3976 46.3128 27.54 46.7544C27.732 47.3256 27.9024 47.8584 28.056 48.3528C28.3464 49.2816 28.5696 50.0832 28.7496 50.8008C29.2074 52.608 29.4753 54.458 29.5488 56.3208C29.5488 56.3208 27.7008 61.1448 27.3408 64.6848L33.4608 65.3448L34.3008 61.8048L35.1408 65.4648L38.5608 64.2648L37.0464 55.6632Z" fill="white"/>
<path d="M30.72 43.9872C30.72 43.9872 31.6008 43.284 33.1752 43.8456L33.3888 44.6472C33.3888 44.6472 32.0376 45.1584 31.356 45.024C30.6744 44.8896 30.72 43.9872 30.72 43.9872Z" fill="#407BFF"/>
<path opacity="0.2" d="M30.72 43.9872C30.72 43.9872 31.6008 43.284 33.1752 43.8456L33.3888 44.6472C33.3888 44.6472 32.0376 45.1584 31.356 45.024C30.6744 44.8896 30.72 43.9872 30.72 43.9872Z" fill="black"/>
<path opacity="0.2" d="M29.0401 52.0944C28.9585 51.6912 28.8625 51.2616 28.7449 50.8008C28.6705 50.508 28.5889 50.2008 28.5049 49.8744C28.7449 49.056 28.9849 49.6944 28.9849 49.6944C29.1342 50.486 29.1529 51.2968 29.0401 52.0944Z" fill="black"/>
<path d="M33.4681 44.5872C33.3904 44.549 33.3102 44.5161 33.2281 44.4888C33.0553 44.352 32.8465 44.0232 32.8561 43.224C32.8622 42.9095 32.8911 42.5959 32.9425 42.2856L30.7201 41.8704C30.7201 41.8704 31.4785 43.368 30.8449 44.4816C30.6289 44.5776 30.4993 44.7216 30.5209 44.8944C30.6889 46.1808 33.4513 47.424 33.4513 47.424C33.4513 47.424 34.8001 45.324 33.4681 44.5872Z" fill="#EEC1BB"/>
<path opacity="0.2" d="M32.9521 42.2856C32.9007 42.5959 32.8718 42.9095 32.8657 43.224C31.3633 43.224 30.7273 41.8704 30.7273 41.8704L32.9521 42.2856Z" fill="black"/>
<path d="M31.9585 34.944C31.9585 34.944 34.5601 34.6152 35.0401 36.72C35.1795 37.3169 35.1464 37.9411 34.9445 38.5199C34.7427 39.0986 34.3805 39.6081 33.9001 39.9888L31.9585 34.944Z" fill="#263238"/>
<path d="M31.7233 36.0648C33.6577 35.9592 34.3369 36.96 34.5865 38.9448C34.9009 41.4264 34.4449 43.2264 31.9969 42.828C28.6729 42.2856 28.5097 36.24 31.7233 36.0648Z" fill="#EEC1BB"/>
<path d="M33.3313 38.9064C33.502 39.1867 33.7059 39.4454 33.9385 39.6768C33.8855 39.7589 33.8108 39.8248 33.7227 39.8671C33.6346 39.9095 33.5365 39.9267 33.4393 39.9168L33.3313 38.9064Z" fill="#D4827D"/>
<path d="M32.1384 38.8128C32.1504 38.9712 32.0736 39.1056 31.968 39.1152C31.8624 39.1248 31.7664 39.0024 31.7544 38.8416C31.7424 38.6808 31.8192 38.5488 31.9248 38.5392C32.0304 38.5296 32.1264 38.6544 32.1384 38.8128Z" fill="#263238"/>
<path d="M31.8816 38.5512L32.2152 38.388C32.2152 38.388 32.0664 38.6928 31.8816 38.5512Z" fill="#263238"/>
<path d="M34.1089 38.6256C34.1089 38.784 34.0441 38.9184 33.9385 38.928C33.8329 38.9376 33.7369 38.8128 33.7249 38.6544C33.7129 38.496 33.7873 38.3616 33.8953 38.352C34.0033 38.3424 34.0969 38.4672 34.1089 38.6256Z" fill="#263238"/>
<path d="M33.8401 38.364L34.1761 38.2008C34.1761 38.2008 34.0369 38.5056 33.8401 38.364Z" fill="#263238"/>
<path d="M32.0449 37.4784C31.8909 37.4682 31.7367 37.4934 31.594 37.5521C31.4513 37.6107 31.324 37.7013 31.2217 37.8168" stroke="#263238" stroke-width="0.686238" stroke-linecap="round" stroke-linejoin="round"/>
<path d="M33.4464 37.32C33.5767 37.2789 33.7145 37.268 33.8497 37.2879C33.9848 37.3079 34.1136 37.3582 34.2264 37.4352" stroke="#263238" stroke-width="0.686238" stroke-linecap="round" stroke-linejoin="round"/>
<path d="M29.7865 39.4392C29.7865 39.4392 30.6049 37.8024 30.4009 36.5832C30.4009 36.5832 34.1473 34.8072 34.5505 38.6856C34.5505 38.6856 34.7353 35.2104 31.4065 35.3256C28.0777 35.4408 28.3561 40.296 30.1537 41.6496C30.1537 41.64 29.2801 40.464 29.7865 39.4392Z" fill="#263238"/>
<path d="M32.2896 34.8C32.2896 34.8 33.8784 34.4088 34.3296 34.8288C34.7808 35.2488 31.5696 38.22 29.8896 38.52C29.8896 38.52 29.3184 40.38 29.7696 41.2488C29.7696 41.2488 27.8784 40.5888 27.7896 37.7088C27.7008 34.8288 30.72 33.744 32.2896 34.8Z" fill="#263238"/>
<path d="M30.1248 39.84C30.0927 39.6173 29.9736 39.4165 29.7937 39.2815C29.6137 39.1466 29.3876 39.0885 29.1648 39.12C28.5696 39.2184 28.3512 40.464 29.8584 40.68C30.0792 40.6944 30.1872 40.4808 30.1248 39.84Z" fill="#EEC1BB"/>
<path d="M29.2801 35.9352C29.2801 35.9352 28.6201 34.2552 26.8489 34.3752C25.0777 34.4952 24.8089 37.2552 25.7401 39.2952C26.6713 41.3352 26.0497 42 26.0497 42C26.0497 42 27.0385 41.88 27.0385 40.0488C27.0932 40.4366 27.1133 40.8286 27.0985 41.22C27.0985 41.22 27.7585 40.2888 27.1297 38.52C26.5009 36.7512 28.5097 37.56 28.5097 37.56L29.2801 35.9352Z" fill="#263238"/>
<path d="M34.1784 34.9752C34.1784 34.9752 33.3384 37.6752 31.0896 38.484" stroke="#263238" stroke-width="0.686238" stroke-linecap="round" stroke-linejoin="round"/>
<path d="M31.92 40.6152C32.0659 40.7598 32.239 40.874 32.4293 40.951C32.6197 41.0281 32.8235 41.0665 33.0288 41.064" stroke="#263238" stroke-width="0.686238" stroke-linecap="round" stroke-linejoin="round"/>
<path d="M30.7201 43.9872C30.7201 43.9872 31.1185 44.796 32.4769 45.372L33.0313 46.2672V45.2472C33.1843 44.7968 33.2335 44.3177 33.1753 43.8456L33.6265 44.6976C33.7631 44.7294 33.8874 44.8004 33.9842 44.9019C34.0809 45.0034 34.146 45.1309 34.1713 45.2688C34.3153 45.792 33.5425 47.6688 33.5425 47.6688C33.5425 47.6688 31.0729 46.7832 30.5185 45.672C30.1081 44.844 30.6001 44.6448 30.6001 44.6448L30.7201 43.9872Z" fill="#407BFF"/>
<path d="M33.9432 48.3552C33.9432 48.3903 33.9328 48.4247 33.9133 48.4539C33.8938 48.4831 33.866 48.5058 33.8336 48.5193C33.8011 48.5327 33.7654 48.5362 33.731 48.5294C33.6965 48.5225 33.6649 48.5056 33.64 48.4808C33.6152 48.4559 33.5983 48.4243 33.5914 48.3898C33.5846 48.3554 33.5881 48.3197 33.6015 48.2872C33.615 48.2548 33.6377 48.227 33.6669 48.2075C33.6962 48.188 33.7305 48.1776 33.7656 48.1776C33.8127 48.1776 33.8579 48.1963 33.8912 48.2296C33.9245 48.2629 33.9432 48.3081 33.9432 48.3552Z" fill="#263238"/>
<path d="M34.3752 51.132C34.3752 51.1671 34.3648 51.2015 34.3453 51.2307C34.3258 51.2599 34.298 51.2826 34.2656 51.2961C34.2331 51.3095 34.1974 51.313 34.163 51.3062C34.1285 51.2993 34.0969 51.2824 34.072 51.2576C34.0472 51.2328 34.0303 51.2011 34.0234 51.1667C34.0166 51.1322 34.0201 51.0965 34.0335 51.064C34.047 51.0316 34.0697 51.0039 34.0989 50.9843C34.1282 50.9648 34.1625 50.9544 34.1976 50.9544C34.2447 50.9544 34.2899 50.9731 34.3232 51.0064C34.3565 51.0397 34.3752 51.0849 34.3752 51.132Z" fill="#263238"/>
<path d="M34.56 54.4968C34.56 54.5319 34.5496 54.5663 34.5301 54.5955C34.5106 54.6247 34.4828 54.6474 34.4504 54.6609C34.4179 54.6743 34.3822 54.6778 34.3478 54.671C34.3133 54.6641 34.2817 54.6472 34.2569 54.6224C34.232 54.5975 34.2151 54.5659 34.2082 54.5314C34.2014 54.497 34.2049 54.4613 34.2184 54.4288C34.2318 54.3964 34.2546 54.3686 34.2838 54.3491C34.313 54.3296 34.3473 54.3192 34.3824 54.3192C34.4295 54.3192 34.4747 54.3379 34.508 54.3712C34.5413 54.4045 34.56 54.4497 34.56 54.4968Z" fill="#263238"/>
<path d="M34.7064 58.0224C34.7064 58.0575 34.696 58.0919 34.6765 58.1211C34.657 58.1503 34.6292 58.173 34.5968 58.1865C34.5643 58.1999 34.5286 58.2034 34.4941 58.1966C34.4597 58.1897 34.4281 58.1728 34.4032 58.148C34.3784 58.1231 34.3615 58.0915 34.3546 58.0571C34.3478 58.0226 34.3513 57.9869 34.3647 57.9544C34.3782 57.922 34.4009 57.8942 34.4301 57.8747C34.4593 57.8552 34.4937 57.8448 34.5288 57.8448C34.5759 57.8448 34.6211 57.8635 34.6544 57.8968C34.6877 57.9301 34.7064 57.9753 34.7064 58.0224Z" fill="#263238"/>
<path d="M48.6481 46.08C49.7763 45.5107 51.0342 45.2475 52.2961 45.3168L53.6329 46.7232C53.6329 46.7232 52.4929 46.4472 49.9201 47.04L48.6481 46.08Z" fill="#407BFF"/>
<path opacity="0.4" d="M48.6481 46.08C49.7763 45.5107 51.0342 45.2475 52.2961 45.3168L53.6329 46.7232C53.6329 46.7232 52.4929 46.4472 49.9201 47.04L48.6481 46.08Z" fill="black"/>
<path d="M48.6337 45.972C49.7291 45.3428 50.9704 45.0118 52.2337 45.012L53.6449 46.344C53.6449 46.344 52.4905 46.14 49.9513 46.86L48.6337 45.972Z" fill="#407BFF"/>
<path opacity="0.2" d="M48.6337 45.972C49.7291 45.3428 50.9704 45.0118 52.2337 45.012L53.6449 46.344C53.6449 46.344 52.4905 46.14 49.9513 46.86L48.6337 45.972Z" fill="black"/>
<path d="M48.7368 45.7872L50.0304 46.8648C51.2956 46.2074 52.7405 45.9799 54.1464 46.2168L52.5216 44.7888C52.5216 44.7888 50.16 44.5152 48.7368 45.7872Z" fill="#407BFF"/>
<path opacity="0.2" d="M49.0657 45.8136L49.9729 46.6152C49.9729 46.6152 51.8233 45.6264 53.6521 45.9912L52.4521 44.8992C52.4521 44.8992 50.4001 44.64 49.0657 45.8136Z" fill="black"/>
<path d="M51.6121 45.4608C51.6121 45.6552 51.4009 45.8136 51.1321 45.8136C50.8633 45.8136 50.6521 45.6552 50.6521 45.4608C50.6521 45.2664 50.8633 45.1056 51.1321 45.1056C51.4009 45.1056 51.6121 45.264 51.6121 45.4608Z" fill="#407BFF"/>
<path d="M39.5736 60.7848C39.6624 59.448 40.4904 55.5048 40.4904 55.5048C40.8532 55.2599 41.2353 55.0448 41.6328 54.8616C42.2415 54.6434 42.8803 54.5212 43.5264 54.4992C43.5264 54.4992 43.9032 59.4744 43.5264 60.0192C43.1496 60.564 39.468 62.3664 39.5736 60.7848Z" fill="#263238"/>
<path d="M40.4905 55.5024C40.4905 55.5024 41.0833 50.2056 42.6385 50.4312C42.6385 50.4312 41.4097 50.6904 40.9585 55.6752L40.4905 55.5024Z" fill="#263238"/>
<path d="M35.0017 52.992C35.2777 52.932 35.9929 51.1296 35.9017 50.9088C35.8105 50.688 30.4801 51.432 30.4801 51.432L30.8305 53.376L35.0017 52.992Z" fill="#407BFF"/>
<path opacity="0.2" d="M35.0017 52.992C35.2777 52.932 35.9929 51.1296 35.9017 50.9088C35.8105 50.688 30.4801 51.432 30.4801 51.432L30.8305 53.376L35.0017 52.992Z" fill="black"/>
<path d="M28.2817 51.468C28.2817 51.468 33.9697 50.6592 34.2241 50.748C34.4785 50.8368 35.0017 52.9944 35.0017 52.9944C35.0017 52.9944 30.0745 53.7744 29.6449 53.6496C29.2153 53.5248 28.0801 51.7656 28.2817 51.468Z" fill="#407BFF"/>
<path d="M26.3496 55.2768L29.3016 53.4144C29.3016 53.4144 29.5272 52.7928 29.8008 52.6656C30.0744 52.5384 31.872 52.3008 32.0472 52.4808C32.2224 52.6608 32.2056 54.0648 31.8672 54.2496C31.5288 54.4344 29.9472 54.4128 29.7984 54.3528L26.4888 56.88L26.3496 55.2768Z" fill="#EEC1BB"/>
<path d="M27.0697 45.372C27.0697 45.372 28.9897 48.1752 28.7185 50.5752L26.1601 54.8136L27.8785 53.9352L28.6585 55.404C28.6585 55.404 26.6785 58.4544 24.1585 57.7344C21.6385 57.0144 27.0697 45.372 27.0697 45.372Z" fill="#263238"/>
<path opacity="0.4" d="M27.0697 45.372C27.0697 45.372 28.9897 48.1752 28.7185 50.5752L26.1601 54.8136L27.8785 53.9352L28.6585 55.404C28.6585 55.404 26.6785 58.4544 24.1585 57.7344C21.6385 57.0144 27.0697 45.372 27.0697 45.372Z" fill="white"/>
<path d="M27.6985 53.8536L28.6801 55.6752L28.8985 55.1544L28.1185 53.6736L27.6985 53.8536Z" fill="#407BFF"/>
</svg>
