<svg width="43" height="40" viewBox="0 0 43 40" fill="none" xmlns="http://www.w3.org/2000/svg">
<path d="M27.6515 20.4054C28.2044 20.2902 28.5336 19.7117 28.2589 19.2183C27.6533 18.1307 26.6993 17.1749 25.4789 16.4465C23.9071 15.5085 21.9812 15 20 15C18.0188 15 16.0929 15.5085 14.5211 16.4465C13.3007 17.1749 12.3467 18.1307 11.7411 19.2183C11.4664 19.7117 11.7956 20.2902 12.3485 20.4054C17.3953 21.4572 22.6047 21.4572 27.6515 20.4054Z" fill="white"/>
<circle cx="20" cy="8" r="5" fill="white"/>
<path d="M3.87048 29.1357H7.70544C9.66736 29.1357 11.0277 30.4688 11.0277 32.4375C11.0277 34.4062 9.62634 35.7393 7.63025 35.7393H5.63416V39H3.87048V29.1357ZM5.63416 30.5781V34.3174H7.23376C8.49841 34.3174 9.23669 33.6338 9.23669 32.4375C9.23669 31.2549 8.50525 30.5781 7.2406 30.5781H5.63416ZM11.7408 39V31.7539H13.3746V33.0186H13.4088C13.6549 32.1367 14.2906 31.6309 15.1451 31.6309C15.3639 31.6309 15.5553 31.6719 15.6783 31.6992V33.2373C15.5347 33.1826 15.275 33.1416 14.9879 33.1416C14.024 33.1416 13.443 33.7637 13.443 34.7822V39H11.7408ZM19.0779 39.1436C16.9519 39.1436 15.5711 37.7285 15.5711 35.377C15.5711 33.0391 16.9656 31.6035 19.0779 31.6035C21.1902 31.6035 22.5848 33.0322 22.5848 35.377C22.5848 37.7285 21.2039 39.1436 19.0779 39.1436ZM19.0779 37.7969C20.158 37.7969 20.8553 36.9219 20.8553 35.377C20.8553 33.8389 20.158 32.957 19.0779 32.957C18.0047 32.957 17.3006 33.8389 17.3006 35.377C17.3006 36.9219 17.9978 37.7969 19.0779 37.7969ZM23.7422 39V33.0664H22.751V31.7744H23.7422V31.1318C23.7422 29.7236 24.4121 29.0605 25.9844 29.0605C26.3193 29.0605 26.6885 29.0947 26.9004 29.1357V30.3252C26.7568 30.3047 26.5586 30.2842 26.3604 30.2842C25.7109 30.2842 25.417 30.5918 25.417 31.1797V31.7744H26.8662V33.0664H25.4443V39H23.7422ZM27.6203 39V31.7539H29.3225V39H27.6203ZM28.468 30.8037C27.9416 30.8037 27.5246 30.3936 27.5246 29.8809C27.5246 29.3613 27.9416 28.9512 28.468 28.9512C29.0012 28.9512 29.4182 29.3613 29.4182 29.8809C29.4182 30.3936 29.0012 30.8037 28.468 30.8037ZM30.391 39V29.1357H32.0932V39H30.391ZM36.2584 32.9229C35.3014 32.9229 34.611 33.6543 34.5426 34.666H37.9264C37.8922 33.6406 37.236 32.9229 36.2584 32.9229ZM37.9332 36.833H39.526C39.3073 38.2002 38.0358 39.1436 36.3199 39.1436C34.1461 39.1436 32.8336 37.7148 32.8336 35.4043C32.8336 33.1143 34.1598 31.6035 36.2516 31.6035C38.3092 31.6035 39.5944 33.0322 39.5944 35.2334V35.7871H34.5289V35.8896C34.5289 37.0518 35.2399 37.8311 36.3541 37.8311C37.1471 37.8311 37.7487 37.4346 37.9332 36.833Z" fill="white"/>
</svg>
