<svg width="43" height="40" viewBox="0 0 43 40" fill="none" xmlns="http://www.w3.org/2000/svg">
<path d="M28.7274 20.4471C28.2716 19.1713 27.2672 18.0439 25.8701 17.2399C24.4729 16.4358 22.7611 16 21 16C19.2389 16 17.5271 16.4358 16.1299 17.2399C14.7328 18.0439 13.7284 19.1713 13.2726 20.4471" stroke="white" stroke-width="2" stroke-linecap="round"/>
<circle cx="21" cy="8" r="4" stroke="white" stroke-width="2" stroke-linecap="round"/>
<path d="M5.35388 29.1357V39H6.58435V35.4795H8.86072C10.7133 35.4795 12.0326 34.1738 12.0326 32.3008C12.0326 30.4346 10.7269 29.1357 8.87439 29.1357H5.35388ZM6.58435 30.2295H8.5531C9.96814 30.2295 10.7679 30.9951 10.7679 32.3008C10.7679 33.6133 9.9613 34.3857 8.5531 34.3857H6.58435V30.2295ZM12.8551 39H14.0445V34.5703C14.0445 33.5654 14.6461 32.9023 15.5689 32.9023C15.856 32.9023 16.109 32.9365 16.2047 32.9707V31.8154C16.109 31.8018 15.9312 31.7676 15.7262 31.7676C14.8922 31.7676 14.2359 32.2666 14.0035 33.0527H13.9762V31.8906H12.8551V39ZM19.3719 39.123C21.3338 39.123 22.66 37.708 22.66 35.4453C22.66 33.1758 21.3338 31.7676 19.3719 31.7676C17.4031 31.7676 16.0769 33.1758 16.0769 35.4453C16.0769 37.708 17.4031 39.123 19.3719 39.123ZM19.3719 38.0771C18.1141 38.0771 17.2869 37.1201 17.2869 35.4453C17.2869 33.7705 18.1141 32.8135 19.3719 32.8135C20.6297 32.8135 21.45 33.7705 21.45 35.4453C21.45 37.1201 20.6297 38.0771 19.3719 38.0771ZM23.8379 39H25.0273V32.8682H26.4766V31.8906H25.0205V31.1045C25.0205 30.4004 25.3281 30.0586 25.9707 30.0586C26.1689 30.0586 26.3672 30.0791 26.5107 30.0996V29.1357C26.3398 29.1084 26.0527 29.0811 25.7861 29.0811C24.4736 29.0811 23.8379 29.7305 23.8379 31.0977V31.8906H22.8467V32.8682H23.8379V39ZM27.3606 39H28.55V31.8906H27.3606V39ZM27.9553 30.6943C28.3654 30.6943 28.7004 30.3594 28.7004 29.9561C28.7004 29.5459 28.3654 29.2178 27.9553 29.2178C27.552 29.2178 27.217 29.5459 27.217 29.9561C27.217 30.3594 27.552 30.6943 27.9553 30.6943ZM29.81 39H30.9994V29.1357H29.81V39ZM35.0485 32.7998C36.1696 32.7998 36.9147 33.6475 36.942 34.8369H33.0797C33.1549 33.6543 33.9342 32.7998 35.0485 32.7998ZM36.9147 36.9629C36.7164 37.6328 36.0533 38.0908 35.151 38.0908C33.8727 38.0908 33.0729 37.1953 33.0729 35.835V35.7666H38.1725V35.3154C38.1725 33.1621 36.9899 31.7676 35.069 31.7676C33.1071 31.7676 31.8492 33.2646 31.8492 35.4727C31.8492 37.708 33.0865 39.123 35.1237 39.123C36.6754 39.123 37.8785 38.207 38.0836 36.9629H36.9147Z" fill="white"/>
</svg>
