<svg width="26" height="24" viewBox="0 0 26 24" fill="none" xmlns="http://www.w3.org/2000/svg">
<path d="M13 5L13 3" stroke="white" stroke-width="2" stroke-linecap="round"/>
<path d="M10.8334 16L10.2917 13" stroke="white" stroke-width="2" stroke-linecap="round"/>
<path d="M15.1665 16L15.7082 13" stroke="white" stroke-width="2" stroke-linecap="round"/>
<path d="M2.16663 9H23.8333V9C22.2974 9 21.5295 9 20.9829 9.43465C20.9659 9.44819 20.9491 9.462 20.9325 9.47609C20.4004 9.92834 20.252 10.6818 19.9552 12.1887L19.0522 16.773C18.748 18.3175 18.5959 19.0897 18.0424 19.5448C17.4888 20 16.7018 20 15.1276 20H10.8723C9.29817 20 8.51112 20 7.95755 19.5448C7.40399 19.0897 7.25188 18.3175 6.94768 16.773L6.04471 12.1887C5.74789 10.6818 5.59948 9.92834 5.0674 9.47609C5.05082 9.462 5.03403 9.44819 5.017 9.43465C4.47045 9 3.70251 9 2.16663 9V9Z" stroke="white" stroke-width="2" stroke-linecap="round"/>
</svg>
